M48
;Layer_Color=9474304
;FILE_FORMAT=4:4
METRIC
;TYPE=PLATED
T1F00S00C0.6000
T2F00S00C1.1000
T3F00S00C1.2000
T4F00S00C1.2700
%
T01
X00673995Y00355235
X01206500Y00327660
X01320800Y00537210
Y00554990
X01348740Y00595630
X01363980Y00608330
X01394460Y00581660
X01474470Y00623570
X01239986Y00689974
X01187450Y00684530
X01158240Y00755222
X01113790Y00742950
X01003300Y00717550
X00982980Y00754380
X00972820Y00629920
X01064513Y00583701
X01085850Y00586740
X01109980Y00588010
X01137920
X01174750Y00505460
Y00485140
Y00467360
X01176020Y00449580
X01158240Y00402590
X00891540Y00499110
X00868680Y00538480
X00861060Y00703580
X00720090Y00554990
X00621030Y00579120
X00492760Y00783590
X00726440Y00805180
T02
X00440690Y00387350
X01459230Y00300890
X01484630
X00440690Y00412750
T03
X00455930Y00304800
X00481330
X00506730
X00532130
X00557530
X00582930
X00594360Y00825500
X00568960
X00543560
X00518160
X00492760
X00467360
X00826770Y00831850
X00852170
X00877570
X00925830Y00830580
X00951230
X00976630
X01018540Y00831850
X01043940
X01069340
X01094740
X01120140
T04
X00509270Y00514350
Y00539750
Y00565150
Y00590550
Y00615950
Y00641350
Y00666750
X00560070Y00654050
Y00628650
Y00603250
Y00577850
Y00552450
Y00527050
Y00501650
Y00679450
M30
