G04*
G04 #@! TF.GenerationSoftware,Altium Limited,Altium Designer,20.2.5 (213)*
G04*
G04 Layer_Physical_Order=1*
G04 Layer_Color=255*
%FSAX44Y44*%
%MOMM*%
G71*
G04*
G04 #@! TF.SameCoordinates,DEE1CB44-B07E-4D6A-B40A-D2815B2109DB*
G04*
G04*
G04 #@! TF.FilePolarity,Positive*
G04*
G01*
G75*
%ADD14C,0.2540*%
%ADD15R,1.6500X1.2000*%
%ADD16R,0.5588X1.3208*%
%ADD17R,1.4000X1.3000*%
%ADD18R,1.1938X0.3048*%
%ADD19R,0.3048X1.1938*%
%ADD20R,5.6000X2.1000*%
%ADD21R,1.3000X1.4000*%
%ADD22R,1.1500X1.3500*%
%ADD23R,1.3500X1.1500*%
%ADD24R,2.4000X0.7600*%
%ADD25R,0.5080X0.9779*%
%ADD35R,1.7780X1.7780*%
%ADD36C,1.7780*%
%ADD41O,2.0000X3.0000*%
%ADD42R,2.0000X3.0000*%
%ADD43R,2.5000X1.7500*%
%ADD44O,2.5000X1.7500*%
%ADD45O,1.7500X2.5000*%
%ADD46R,1.7500X2.5000*%
%ADD47C,1.0000*%
G36*
X01545590Y00262890D02*
X00403340D01*
X00402590Y00263640D01*
X00402590Y00847090D01*
X00420370Y00864870D01*
X01545590D01*
Y00262890D01*
D02*
G37*
%LPC*%
G36*
X01132680Y00849390D02*
X01121410D01*
Y00833120D01*
X01132680D01*
Y00849390D01*
D02*
G37*
G36*
X01118870D02*
X01107600D01*
Y00833120D01*
X01118870D01*
Y00849390D01*
D02*
G37*
G36*
X00890110D02*
X00878840D01*
Y00833120D01*
X00890110D01*
Y00849390D01*
D02*
G37*
G36*
X00876300D02*
X00865030D01*
Y00833120D01*
X00876300D01*
Y00849390D01*
D02*
G37*
G36*
X00989170Y00848120D02*
X00977900D01*
Y00831850D01*
X00989170D01*
Y00848120D01*
D02*
G37*
G36*
X00975360D02*
X00964090D01*
Y00831850D01*
X00975360D01*
Y00848120D01*
D02*
G37*
G36*
X00570230Y00842981D02*
Y00826770D01*
X00581608D01*
Y00830500D01*
X00581177Y00833774D01*
X00579914Y00836824D01*
X00577904Y00839444D01*
X00575284Y00841454D01*
X00572234Y00842717D01*
X00570230Y00842981D01*
D02*
G37*
G36*
X00567690D02*
X00565686Y00842717D01*
X00562636Y00841454D01*
X00560016Y00839444D01*
X00558006Y00836824D01*
X00556743Y00833774D01*
X00556312Y00830500D01*
Y00826770D01*
X00567690D01*
Y00842981D01*
D02*
G37*
G36*
X01094740Y00848730D02*
X01091665Y00848325D01*
X01088800Y00847138D01*
X01086340Y00845250D01*
X01084452Y00842790D01*
X01083265Y00839925D01*
X01082860Y00836850D01*
Y00826850D01*
X01083265Y00823775D01*
X01084452Y00820910D01*
X01086340Y00818450D01*
X01088800Y00816562D01*
X01091665Y00815375D01*
X01094740Y00814970D01*
X01097815Y00815375D01*
X01100680Y00816562D01*
X01103140Y00818450D01*
X01105028Y00820910D01*
X01106215Y00823775D01*
X01106620Y00826850D01*
Y00836850D01*
X01106215Y00839925D01*
X01105028Y00842790D01*
X01103140Y00845250D01*
X01100680Y00847138D01*
X01097815Y00848325D01*
X01094740Y00848730D01*
D02*
G37*
G36*
X01069340D02*
X01066265Y00848325D01*
X01063400Y00847138D01*
X01060940Y00845250D01*
X01059052Y00842790D01*
X01057865Y00839925D01*
X01057460Y00836850D01*
Y00826850D01*
X01057865Y00823775D01*
X01059052Y00820910D01*
X01060940Y00818450D01*
X01063400Y00816562D01*
X01066265Y00815375D01*
X01069340Y00814970D01*
X01072415Y00815375D01*
X01075280Y00816562D01*
X01077740Y00818450D01*
X01079628Y00820910D01*
X01080815Y00823775D01*
X01081220Y00826850D01*
Y00836850D01*
X01080815Y00839925D01*
X01079628Y00842790D01*
X01077740Y00845250D01*
X01075280Y00847138D01*
X01072415Y00848325D01*
X01069340Y00848730D01*
D02*
G37*
G36*
X01043940D02*
X01040865Y00848325D01*
X01038000Y00847138D01*
X01035540Y00845250D01*
X01033652Y00842790D01*
X01032465Y00839925D01*
X01032060Y00836850D01*
Y00826850D01*
X01032465Y00823775D01*
X01033652Y00820910D01*
X01035540Y00818450D01*
X01038000Y00816562D01*
X01040865Y00815375D01*
X01043940Y00814970D01*
X01047015Y00815375D01*
X01049880Y00816562D01*
X01052340Y00818450D01*
X01054228Y00820910D01*
X01055415Y00823775D01*
X01055820Y00826850D01*
Y00836850D01*
X01055415Y00839925D01*
X01054228Y00842790D01*
X01052340Y00845250D01*
X01049880Y00847138D01*
X01047015Y00848325D01*
X01043940Y00848730D01*
D02*
G37*
G36*
X01018540D02*
X01015465Y00848325D01*
X01012600Y00847138D01*
X01010140Y00845250D01*
X01008252Y00842790D01*
X01007065Y00839925D01*
X01006660Y00836850D01*
Y00826850D01*
X01007065Y00823775D01*
X01008252Y00820910D01*
X01010140Y00818450D01*
X01012600Y00816562D01*
X01015465Y00815375D01*
X01018540Y00814970D01*
X01021615Y00815375D01*
X01024480Y00816562D01*
X01026940Y00818450D01*
X01028828Y00820910D01*
X01030015Y00823775D01*
X01030420Y00826850D01*
Y00836850D01*
X01030015Y00839925D01*
X01028828Y00842790D01*
X01026940Y00845250D01*
X01024480Y00847138D01*
X01021615Y00848325D01*
X01018540Y00848730D01*
D02*
G37*
G36*
X00852170D02*
X00849095Y00848325D01*
X00846230Y00847138D01*
X00843770Y00845250D01*
X00841882Y00842790D01*
X00840695Y00839925D01*
X00840290Y00836850D01*
Y00826850D01*
X00840695Y00823775D01*
X00841882Y00820910D01*
X00843770Y00818450D01*
X00846230Y00816562D01*
X00849095Y00815375D01*
X00852170Y00814970D01*
X00855245Y00815375D01*
X00858110Y00816562D01*
X00860570Y00818450D01*
X00862458Y00820910D01*
X00863645Y00823775D01*
X00864050Y00826850D01*
Y00836850D01*
X00863645Y00839925D01*
X00862458Y00842790D01*
X00860570Y00845250D01*
X00858110Y00847138D01*
X00855245Y00848325D01*
X00852170Y00848730D01*
D02*
G37*
G36*
X00826770D02*
X00823695Y00848325D01*
X00820830Y00847138D01*
X00818370Y00845250D01*
X00816482Y00842790D01*
X00815295Y00839925D01*
X00814890Y00836850D01*
Y00826850D01*
X00815295Y00823775D01*
X00816482Y00820910D01*
X00818370Y00818450D01*
X00820830Y00816562D01*
X00823695Y00815375D01*
X00826770Y00814970D01*
X00829845Y00815375D01*
X00832710Y00816562D01*
X00835170Y00818450D01*
X00837058Y00820910D01*
X00838245Y00823775D01*
X00838650Y00826850D01*
Y00836850D01*
X00838245Y00839925D01*
X00837058Y00842790D01*
X00835170Y00845250D01*
X00832710Y00847138D01*
X00829845Y00848325D01*
X00826770Y00848730D01*
D02*
G37*
G36*
X01132680Y00830580D02*
X01121410D01*
Y00814310D01*
X01132680D01*
Y00830580D01*
D02*
G37*
G36*
X01118870D02*
X01107600D01*
Y00814310D01*
X01118870D01*
Y00830580D01*
D02*
G37*
G36*
X00890110D02*
X00878840D01*
Y00814310D01*
X00890110D01*
Y00830580D01*
D02*
G37*
G36*
X00876300D02*
X00865030D01*
Y00814310D01*
X00876300D01*
Y00830580D01*
D02*
G37*
G36*
X00951230Y00847460D02*
X00948155Y00847055D01*
X00945290Y00845868D01*
X00942830Y00843980D01*
X00940942Y00841520D01*
X00939755Y00838655D01*
X00939350Y00835580D01*
Y00825580D01*
X00939755Y00822505D01*
X00940942Y00819640D01*
X00942830Y00817180D01*
X00945290Y00815292D01*
X00948155Y00814105D01*
X00951230Y00813700D01*
X00954305Y00814105D01*
X00957170Y00815292D01*
X00959630Y00817180D01*
X00961518Y00819640D01*
X00962705Y00822505D01*
X00963110Y00825580D01*
Y00835580D01*
X00962705Y00838655D01*
X00961518Y00841520D01*
X00959630Y00843980D01*
X00957170Y00845868D01*
X00954305Y00847055D01*
X00951230Y00847460D01*
D02*
G37*
G36*
X00925830D02*
X00922755Y00847055D01*
X00919890Y00845868D01*
X00917430Y00843980D01*
X00915542Y00841520D01*
X00914355Y00838655D01*
X00913950Y00835580D01*
Y00825580D01*
X00914355Y00822505D01*
X00915542Y00819640D01*
X00917430Y00817180D01*
X00919890Y00815292D01*
X00922755Y00814105D01*
X00925830Y00813700D01*
X00928905Y00814105D01*
X00931770Y00815292D01*
X00934230Y00817180D01*
X00936118Y00819640D01*
X00937305Y00822505D01*
X00937710Y00825580D01*
Y00835580D01*
X00937305Y00838655D01*
X00936118Y00841520D01*
X00934230Y00843980D01*
X00931770Y00845868D01*
X00928905Y00847055D01*
X00925830Y00847460D01*
D02*
G37*
G36*
X00989170Y00829310D02*
X00977900D01*
Y00813040D01*
X00989170D01*
Y00829310D01*
D02*
G37*
G36*
X00975360D02*
X00964090D01*
Y00813040D01*
X00975360D01*
Y00829310D01*
D02*
G37*
G36*
X00606138Y00842278D02*
X00582582D01*
Y00808722D01*
X00606138D01*
Y00842278D01*
D02*
G37*
G36*
X00543560Y00842380D02*
X00540485Y00841975D01*
X00537620Y00840788D01*
X00535160Y00838900D01*
X00533272Y00836440D01*
X00532085Y00833575D01*
X00531680Y00830500D01*
Y00820500D01*
X00532085Y00817425D01*
X00533272Y00814560D01*
X00535160Y00812100D01*
X00537620Y00810212D01*
X00540485Y00809025D01*
X00543560Y00808620D01*
X00546635Y00809025D01*
X00549500Y00810212D01*
X00551960Y00812100D01*
X00553848Y00814560D01*
X00555035Y00817425D01*
X00555440Y00820500D01*
Y00830500D01*
X00555035Y00833575D01*
X00553848Y00836440D01*
X00551960Y00838900D01*
X00549500Y00840788D01*
X00546635Y00841975D01*
X00543560Y00842380D01*
D02*
G37*
G36*
X00518160D02*
X00515085Y00841975D01*
X00512220Y00840788D01*
X00509760Y00838900D01*
X00507872Y00836440D01*
X00506685Y00833575D01*
X00506280Y00830500D01*
Y00820500D01*
X00506685Y00817425D01*
X00507872Y00814560D01*
X00509760Y00812100D01*
X00512220Y00810212D01*
X00515085Y00809025D01*
X00518160Y00808620D01*
X00521235Y00809025D01*
X00524100Y00810212D01*
X00526560Y00812100D01*
X00528448Y00814560D01*
X00529635Y00817425D01*
X00530040Y00820500D01*
Y00830500D01*
X00529635Y00833575D01*
X00528448Y00836440D01*
X00526560Y00838900D01*
X00524100Y00840788D01*
X00521235Y00841975D01*
X00518160Y00842380D01*
D02*
G37*
G36*
X00492760D02*
X00489685Y00841975D01*
X00486820Y00840788D01*
X00484360Y00838900D01*
X00482472Y00836440D01*
X00481285Y00833575D01*
X00480880Y00830500D01*
Y00820500D01*
X00481285Y00817425D01*
X00482472Y00814560D01*
X00484360Y00812100D01*
X00486820Y00810212D01*
X00489685Y00809025D01*
X00492760Y00808620D01*
X00495835Y00809025D01*
X00498700Y00810212D01*
X00501160Y00812100D01*
X00503048Y00814560D01*
X00504235Y00817425D01*
X00504640Y00820500D01*
Y00830500D01*
X00504235Y00833575D01*
X00503048Y00836440D01*
X00501160Y00838900D01*
X00498700Y00840788D01*
X00495835Y00841975D01*
X00492760Y00842380D01*
D02*
G37*
G36*
X00467360D02*
X00464285Y00841975D01*
X00461420Y00840788D01*
X00458960Y00838900D01*
X00457072Y00836440D01*
X00455885Y00833575D01*
X00455480Y00830500D01*
Y00820500D01*
X00455885Y00817425D01*
X00457072Y00814560D01*
X00458960Y00812100D01*
X00461420Y00810212D01*
X00464285Y00809025D01*
X00467360Y00808620D01*
X00470435Y00809025D01*
X00473300Y00810212D01*
X00475760Y00812100D01*
X00477648Y00814560D01*
X00478835Y00817425D01*
X00479240Y00820500D01*
Y00830500D01*
X00478835Y00833575D01*
X00477648Y00836440D01*
X00475760Y00838900D01*
X00473300Y00840788D01*
X00470435Y00841975D01*
X00467360Y00842380D01*
D02*
G37*
G36*
X00581608Y00824230D02*
X00570230D01*
Y00808019D01*
X00572234Y00808283D01*
X00575284Y00809546D01*
X00577904Y00811556D01*
X00579914Y00814176D01*
X00581177Y00817226D01*
X00581608Y00820500D01*
Y00824230D01*
D02*
G37*
G36*
X00567690D02*
X00556312D01*
Y00820500D01*
X00556743Y00817226D01*
X00558006Y00814176D01*
X00560016Y00811556D01*
X00562636Y00809546D01*
X00565686Y00808283D01*
X00567690Y00808019D01*
Y00824230D01*
D02*
G37*
G36*
X01497138Y00845398D02*
X01437582D01*
Y00820842D01*
X01463742D01*
Y00796178D01*
X01460270D01*
Y00796940D01*
X01452500D01*
Y00787400D01*
Y00777860D01*
X01460270D01*
Y00778622D01*
X01464122D01*
Y00737168D01*
X01418590D01*
X01418069Y00737064D01*
X01259314D01*
X01258125Y00736827D01*
X01257116Y00736154D01*
X01256078Y00735115D01*
X01255328Y00735426D01*
Y00738901D01*
X01371382D01*
X01372571Y00739137D01*
X01373580Y00739811D01*
X01375067Y00741299D01*
X01375741Y00742307D01*
X01375978Y00743496D01*
Y00778622D01*
X01379450D01*
Y00777860D01*
X01387220D01*
Y00787400D01*
Y00796940D01*
X01379450D01*
Y00796178D01*
X01375598D01*
Y00820842D01*
X01402138D01*
Y00845398D01*
X01342582D01*
Y00820842D01*
X01369382D01*
Y00796178D01*
X01364212D01*
Y00778622D01*
X01369762D01*
Y00745116D01*
X01253708D01*
X01252519Y00744880D01*
X01251510Y00744206D01*
X01250023Y00742718D01*
X01249349Y00741710D01*
X01249112Y00740521D01*
Y00678748D01*
X01240790D01*
X01239601Y00678511D01*
X01238593Y00677838D01*
X01236851Y00676096D01*
X01236158Y00676383D01*
Y00681751D01*
X01237906Y00683499D01*
X01238216Y00683370D01*
X01239986Y00683137D01*
X01241755Y00683370D01*
X01243404Y00684053D01*
X01244820Y00685139D01*
X01245906Y00686555D01*
X01246589Y00688204D01*
X01246822Y00689974D01*
X01246589Y00691743D01*
X01245906Y00693392D01*
X01244820Y00694808D01*
X01243404Y00695894D01*
X01241755Y00696577D01*
X01239986Y00696810D01*
X01238216Y00696577D01*
X01236568Y00695894D01*
X01235152Y00694808D01*
X01234065Y00693392D01*
X01233382Y00691743D01*
X01233149Y00689974D01*
X01233382Y00688204D01*
X01233511Y00687894D01*
X01231851Y00686234D01*
X01231158Y00686520D01*
Y00772200D01*
X01230921Y00773389D01*
X01230247Y00774398D01*
X01207428Y00797217D01*
X01206419Y00797891D01*
X01205230Y00798128D01*
X00729086D01*
X00728937Y00798878D01*
X00729858Y00799259D01*
X00731274Y00800346D01*
X00732361Y00801762D01*
X00733044Y00803411D01*
X00733277Y00805180D01*
X00733044Y00806949D01*
X00732361Y00808598D01*
X00731274Y00810014D01*
X00729858Y00811101D01*
X00728209Y00811784D01*
X00726440Y00812017D01*
X00724671Y00811784D01*
X00723022Y00811101D01*
X00721606Y00810014D01*
X00720519Y00808598D01*
X00719837Y00806949D01*
X00719678Y00805748D01*
X00565150D01*
X00563961Y00805511D01*
X00562952Y00804837D01*
X00544813Y00786698D01*
X00498809D01*
X00498681Y00787008D01*
X00497594Y00788424D01*
X00496178Y00789511D01*
X00494529Y00790193D01*
X00492760Y00790426D01*
X00490991Y00790193D01*
X00489342Y00789511D01*
X00487926Y00788424D01*
X00486839Y00787008D01*
X00486157Y00785359D01*
X00485924Y00783590D01*
X00486157Y00781821D01*
X00486839Y00780172D01*
X00487926Y00778756D01*
X00489342Y00777669D01*
X00490991Y00776986D01*
X00492760Y00776753D01*
X00494529Y00776986D01*
X00496178Y00777669D01*
X00497594Y00778756D01*
X00498681Y00780172D01*
X00498809Y00780482D01*
X00546100D01*
X00547289Y00780719D01*
X00548298Y00781393D01*
X00566437Y00799532D01*
X00721881D01*
X00722505Y00799656D01*
X00723022Y00799259D01*
X00723943Y00798878D01*
X00723794Y00798128D01*
X00568960D01*
X00567771Y00797891D01*
X00566763Y00797217D01*
X00453732Y00684187D01*
X00453059Y00683179D01*
X00452822Y00681990D01*
Y00553932D01*
X00453059Y00552743D01*
X00453732Y00551735D01*
X00455220Y00550247D01*
X00456229Y00549573D01*
X00457418Y00549337D01*
X00503007D01*
X00503262Y00548587D01*
X00501661Y00547359D01*
X00499952Y00545130D01*
X00498877Y00542535D01*
X00498510Y00539750D01*
X00498877Y00536965D01*
X00499952Y00534370D01*
X00501661Y00532141D01*
X00503890Y00530432D01*
X00506485Y00529357D01*
X00509270Y00528990D01*
X00512055Y00529357D01*
X00514650Y00530432D01*
X00516879Y00532141D01*
X00518588Y00534370D01*
X00519663Y00536965D01*
X00520030Y00539750D01*
X00519663Y00542535D01*
X00518588Y00545130D01*
X00516879Y00547359D01*
X00515278Y00548587D01*
X00515533Y00549337D01*
X00549813D01*
X00550751Y00547070D01*
X00552462Y00544841D01*
X00554690Y00543131D01*
X00557285Y00542057D01*
X00560070Y00541690D01*
X00562855Y00542057D01*
X00565450Y00543131D01*
X00567678Y00544841D01*
X00569389Y00547070D01*
X00570463Y00549665D01*
X00570830Y00552450D01*
X00570463Y00555235D01*
X00569389Y00557830D01*
X00567678Y00560059D01*
X00566071Y00561292D01*
X00566325Y00562042D01*
X00708643D01*
X00713615Y00557070D01*
X00713486Y00556759D01*
X00713253Y00554990D01*
X00713486Y00553221D01*
X00714169Y00551572D01*
X00715256Y00550156D01*
X00716672Y00549069D01*
X00718321Y00548386D01*
X00720090Y00548153D01*
X00721859Y00548386D01*
X00723508Y00549069D01*
X00724924Y00550156D01*
X00726011Y00551572D01*
X00726693Y00553221D01*
X00726926Y00554990D01*
X00726693Y00556759D01*
X00726011Y00558408D01*
X00724924Y00559824D01*
X00723508Y00560911D01*
X00721859Y00561594D01*
X00720090Y00561827D01*
X00718321Y00561594D01*
X00718010Y00561465D01*
X00712128Y00567347D01*
X00711119Y00568021D01*
X00709930Y00568258D01*
X00566325D01*
X00566071Y00569008D01*
X00567678Y00570242D01*
X00569389Y00572470D01*
X00570463Y00575065D01*
X00570830Y00577850D01*
X00570463Y00580635D01*
X00569389Y00583230D01*
X00567678Y00585458D01*
X00565450Y00587169D01*
X00562855Y00588243D01*
X00560070Y00588610D01*
X00557285Y00588243D01*
X00554690Y00587169D01*
X00552462Y00585458D01*
X00550751Y00583230D01*
X00549810Y00580958D01*
X00516712D01*
X00516470Y00581668D01*
X00517422Y00582398D01*
X00519254Y00584786D01*
X00520406Y00587566D01*
X00520631Y00589280D01*
X00509270D01*
X00497909D01*
X00498134Y00587566D01*
X00499286Y00584786D01*
X00501118Y00582398D01*
X00502070Y00581668D01*
X00501828Y00580958D01*
X00471738D01*
Y00676893D01*
X00579137Y00784292D01*
X01197593D01*
X01219644Y00762241D01*
X01219602Y00761974D01*
X01218802Y00761713D01*
X01203617Y00776898D01*
X01202609Y00777571D01*
X01201420Y00777808D01*
X00579120D01*
X00577931Y00777571D01*
X00576922Y00776898D01*
X00476592Y00676568D01*
X00475919Y00675559D01*
X00475682Y00674370D01*
Y00617438D01*
X00475919Y00616249D01*
X00476592Y00615240D01*
X00478080Y00613753D01*
X00479089Y00613079D01*
X00480278Y00612842D01*
X00499010D01*
X00499952Y00610570D01*
X00501661Y00608341D01*
X00503890Y00606632D01*
X00506485Y00605557D01*
X00509270Y00605190D01*
X00512055Y00605557D01*
X00514650Y00606632D01*
X00516879Y00608341D01*
X00518588Y00610570D01*
X00519663Y00613165D01*
X00520030Y00615950D01*
X00519663Y00618735D01*
X00518588Y00621330D01*
X00516879Y00623559D01*
X00514650Y00625269D01*
X00512055Y00626343D01*
X00509270Y00626710D01*
X00506485Y00626343D01*
X00503890Y00625269D01*
X00501661Y00623559D01*
X00499952Y00621330D01*
X00499010Y00619058D01*
X00481898D01*
Y00673083D01*
X00580407Y00771592D01*
X01200133D01*
X01214942Y00756783D01*
Y00755123D01*
X01214249Y00754836D01*
X01202347Y00766738D01*
X01201339Y00767411D01*
X01200150Y00767648D01*
X00582930D01*
X00581741Y00767411D01*
X00580732Y00766738D01*
X00489292Y00675297D01*
X00488619Y00674289D01*
X00488382Y00673100D01*
Y00642838D01*
X00488619Y00641649D01*
X00489292Y00640640D01*
X00490780Y00639152D01*
X00491789Y00638479D01*
X00492978Y00638242D01*
X00499010D01*
X00499952Y00635970D01*
X00501661Y00633741D01*
X00503890Y00632032D01*
X00506485Y00630957D01*
X00509270Y00630590D01*
X00512055Y00630957D01*
X00514650Y00632032D01*
X00516879Y00633741D01*
X00518588Y00635970D01*
X00519663Y00638565D01*
X00520030Y00641350D01*
X00519663Y00644135D01*
X00518588Y00646730D01*
X00516879Y00648959D01*
X00514650Y00650668D01*
X00512055Y00651743D01*
X00509270Y00652110D01*
X00506485Y00651743D01*
X00503890Y00650668D01*
X00501661Y00648959D01*
X00499952Y00646730D01*
X00499010Y00644458D01*
X00494598D01*
Y00671813D01*
X00584217Y00761432D01*
X00980334D01*
X00980483Y00760682D01*
X00979562Y00760301D01*
X00978146Y00759214D01*
X00977059Y00757798D01*
X00976376Y00756149D01*
X00976143Y00754380D01*
X00976376Y00752611D01*
X00977059Y00750962D01*
X00978146Y00749546D01*
X00979562Y00748459D01*
X00981211Y00747776D01*
X00982980Y00747543D01*
X00984749Y00747776D01*
X00986398Y00748459D01*
X00987814Y00749546D01*
X00988901Y00750962D01*
X00989378Y00752114D01*
X01152191D01*
X01152319Y00751804D01*
X01153406Y00750388D01*
X01154822Y00749301D01*
X01156471Y00748618D01*
X01158240Y00748385D01*
X01160009Y00748618D01*
X01161658Y00749301D01*
X01163074Y00750388D01*
X01164161Y00751804D01*
X01164844Y00753453D01*
X01165077Y00755222D01*
X01164844Y00756991D01*
X01164161Y00758640D01*
X01163074Y00760056D01*
X01162258Y00760682D01*
X01162513Y00761432D01*
X01198863D01*
X01209942Y00750353D01*
Y00717223D01*
X01209249Y00716936D01*
X01198309Y00727876D01*
X01197301Y00728549D01*
X01196112Y00728786D01*
X01171590D01*
Y00734590D01*
X01163320D01*
Y00725550D01*
X01160780D01*
Y00734590D01*
X01152510D01*
Y00728786D01*
X01122060D01*
Y00733320D01*
X01116898D01*
Y00736076D01*
X01117592Y00736364D01*
X01119168Y00737572D01*
X01120376Y00739147D01*
X01121136Y00740982D01*
X01121228Y00741680D01*
X01106352D01*
X01106444Y00740982D01*
X01107204Y00739147D01*
X01108412Y00737572D01*
X01109987Y00736364D01*
X01110682Y00736076D01*
Y00733320D01*
X01102980D01*
Y00725550D01*
X01112520D01*
Y00723010D01*
X01102980D01*
Y00715240D01*
X01103742D01*
Y00700002D01*
X01121298D01*
Y00706442D01*
X01153272D01*
Y00701272D01*
X01158942D01*
Y00655320D01*
X01159179Y00654131D01*
X01159853Y00653122D01*
X01188152Y00624823D01*
Y00618618D01*
X01176559D01*
Y00619240D01*
X01159541D01*
Y00616446D01*
X01160303D01*
Y00613618D01*
X01010027D01*
X00991168Y00632477D01*
Y00679196D01*
X00990931Y00680385D01*
X00990257Y00681394D01*
X00988225Y00683426D01*
X00987217Y00684099D01*
X00986028Y00684336D01*
X00963568D01*
Y00688108D01*
X00958148D01*
Y00702600D01*
X00957911Y00703789D01*
X00957237Y00704798D01*
X00955750Y00706285D01*
X00954741Y00706959D01*
X00953552Y00707196D01*
X00905728D01*
X00904539Y00706959D01*
X00903530Y00706285D01*
X00902042Y00704798D01*
X00901369Y00703789D01*
X00901132Y00702600D01*
Y00690118D01*
X00899668D01*
Y00673354D01*
X00908812D01*
Y00690118D01*
X00907348D01*
Y00700980D01*
X00951932D01*
Y00688108D01*
X00946512D01*
Y00673052D01*
X00963568D01*
Y00678120D01*
X00984741D01*
X00984952Y00677909D01*
Y00631190D01*
X00985189Y00630001D01*
X00985863Y00628993D01*
X01005746Y00609109D01*
X01005504Y00608290D01*
X01004632Y00607707D01*
X00983323Y00586398D01*
X00982649Y00585389D01*
X00982412Y00584200D01*
Y00508017D01*
X00966470Y00492075D01*
X00964857Y00493688D01*
X00963849Y00494361D01*
X00962660Y00494598D01*
X00915670D01*
X00914481Y00494361D01*
X00913473Y00493688D01*
X00909003Y00489217D01*
X00908329Y00488209D01*
X00908092Y00487020D01*
Y00469900D01*
X00906628D01*
Y00453136D01*
X00915772D01*
Y00469900D01*
X00914308D01*
Y00485733D01*
X00916957Y00488382D01*
X00961373D01*
X00963362Y00486393D01*
Y00463178D01*
X00957942D01*
Y00448122D01*
X00974998D01*
Y00463178D01*
X00969578D01*
Y00486393D01*
X00987718Y00504533D01*
X00988391Y00505541D01*
X00988628Y00506730D01*
Y00582913D01*
X01008117Y00602402D01*
X01160303D01*
Y00592208D01*
Y00583618D01*
X01146707D01*
X01144395Y00585930D01*
X01144523Y00586241D01*
X01144756Y00588010D01*
X01144523Y00589779D01*
X01143841Y00591428D01*
X01142754Y00592844D01*
X01141338Y00593931D01*
X01139689Y00594613D01*
X01137920Y00594846D01*
X01136151Y00594613D01*
X01134502Y00593931D01*
X01133086Y00592844D01*
X01131999Y00591428D01*
X01131317Y00589779D01*
X01131084Y00588010D01*
X01131317Y00586241D01*
X01131999Y00584592D01*
X01133086Y00583176D01*
X01134502Y00582089D01*
X01136151Y00581407D01*
X01137920Y00581174D01*
X01139689Y00581407D01*
X01140000Y00581535D01*
X01142224Y00579311D01*
X01141937Y00578618D01*
X01123767D01*
X01116455Y00585930D01*
X01116583Y00586241D01*
X01116816Y00588010D01*
X01116583Y00589779D01*
X01115901Y00591428D01*
X01114814Y00592844D01*
X01113398Y00593931D01*
X01111749Y00594613D01*
X01109980Y00594846D01*
X01108211Y00594613D01*
X01106562Y00593931D01*
X01105146Y00592844D01*
X01104059Y00591428D01*
X01103376Y00589779D01*
X01103143Y00588010D01*
X01103376Y00586241D01*
X01104059Y00584592D01*
X01105146Y00583176D01*
X01106562Y00582089D01*
X01108211Y00581407D01*
X01109980Y00581174D01*
X01111749Y00581407D01*
X01112060Y00581535D01*
X01120283Y00573312D01*
X01121291Y00572639D01*
X01122480Y00572402D01*
X01160303D01*
Y00568618D01*
X01108367D01*
X01092325Y00584660D01*
X01092454Y00584971D01*
X01092686Y00586740D01*
X01092454Y00588509D01*
X01091771Y00590158D01*
X01090684Y00591574D01*
X01089268Y00592661D01*
X01087619Y00593344D01*
X01085850Y00593577D01*
X01084081Y00593344D01*
X01082432Y00592661D01*
X01081016Y00591574D01*
X01079929Y00590158D01*
X01079247Y00588509D01*
X01079014Y00586740D01*
X01079247Y00584971D01*
X01079929Y00583322D01*
X01081016Y00581906D01*
X01082432Y00580819D01*
X01084081Y00580136D01*
X01085850Y00579903D01*
X01087619Y00580136D01*
X01087930Y00580265D01*
X01103977Y00564219D01*
X01103689Y00563526D01*
X01089329D01*
X01071060Y00581795D01*
X01071117Y00581931D01*
X01071350Y00583701D01*
X01071117Y00585470D01*
X01070434Y00587119D01*
X01069348Y00588535D01*
X01067932Y00589621D01*
X01066283Y00590304D01*
X01064513Y00590537D01*
X01062744Y00590304D01*
X01061095Y00589621D01*
X01059679Y00588535D01*
X01058593Y00587119D01*
X01057910Y00585470D01*
X01057677Y00583701D01*
X01057910Y00581931D01*
X01058593Y00580282D01*
X01059679Y00578867D01*
X01061095Y00577780D01*
X01062744Y00577097D01*
X01064513Y00576864D01*
X01066283Y00577097D01*
X01066767Y00577298D01*
X01085845Y00558220D01*
X01086853Y00557547D01*
X01088042Y00557310D01*
X01141215D01*
X01141502Y00556617D01*
X01109963Y00525078D01*
X01100038D01*
X01098849Y00524841D01*
X01097840Y00524168D01*
X01096352Y00522680D01*
X01095679Y00521671D01*
X01095442Y00520482D01*
Y00506878D01*
X01089772D01*
Y00491640D01*
X01089010D01*
Y00483870D01*
X01098550D01*
Y00482600D01*
X01099820D01*
Y00473560D01*
X01108090D01*
Y00479492D01*
X01116950D01*
Y00474450D01*
X01125220D01*
Y00483490D01*
X01126490D01*
Y00484760D01*
X01136030D01*
Y00492530D01*
X01135268D01*
Y00494732D01*
X01150052D01*
Y00426720D01*
X01150289Y00425531D01*
X01150963Y00424523D01*
X01155132Y00420353D01*
Y00408639D01*
X01154822Y00408511D01*
X01153406Y00407424D01*
X01152319Y00406008D01*
X01151637Y00404359D01*
X01151404Y00402590D01*
X01151637Y00400821D01*
X01152319Y00399172D01*
X01153406Y00397756D01*
X01154822Y00396669D01*
X01156471Y00395987D01*
X01158240Y00395754D01*
X01160009Y00395987D01*
X01161658Y00396669D01*
X01163074Y00397756D01*
X01164161Y00399172D01*
X01164844Y00400821D01*
X01165077Y00402590D01*
X01164844Y00404359D01*
X01164161Y00406008D01*
X01163074Y00407424D01*
X01161658Y00408511D01*
X01161348Y00408639D01*
Y00419802D01*
X01253302D01*
Y00411368D01*
X01249450D01*
Y00412130D01*
X01241680D01*
Y00402590D01*
X01240410D01*
Y00401320D01*
X01231370D01*
Y00393050D01*
X01237302D01*
Y00390540D01*
X01231370D01*
Y00382270D01*
X01240410D01*
Y00379730D01*
X01231370D01*
Y00371460D01*
X01237302D01*
Y00366410D01*
X01231370D01*
Y00358140D01*
X01240410D01*
Y00356870D01*
X01241680D01*
Y00347330D01*
X01249450D01*
Y00348092D01*
X01264688D01*
Y00353762D01*
X01276350D01*
X01277539Y00353999D01*
X01278548Y00354673D01*
X01284087Y00360212D01*
X01313980D01*
X01314267Y00359519D01*
X01311855Y00357108D01*
X01311182Y00356100D01*
X01310945Y00354911D01*
Y00351917D01*
X01309735D01*
Y00338582D01*
X01318371Y00338582D01*
X01318473Y00337874D01*
Y00337820D01*
X01322283D01*
Y00345249D01*
X01324823D01*
Y00337820D01*
X01328633D01*
Y00337874D01*
X01328735Y00338582D01*
X01329580Y00338582D01*
X01330110Y00338052D01*
Y00325979D01*
X01330347Y00324790D01*
X01331021Y00323782D01*
X01331880Y00322923D01*
X01332888Y00322249D01*
X01334077Y00322012D01*
X01400810D01*
X01401999Y00322249D01*
X01403008Y00322923D01*
X01416067Y00335982D01*
X01481522D01*
Y00314748D01*
X01479321Y00313836D01*
X01477121Y00312149D01*
X01475434Y00309949D01*
X01474373Y00307388D01*
X01474011Y00304640D01*
Y00297140D01*
X01474373Y00294392D01*
X01475434Y00291831D01*
X01477121Y00289631D01*
X01479321Y00287944D01*
X01481882Y00286883D01*
X01484630Y00286521D01*
X01487378Y00286883D01*
X01489939Y00287944D01*
X01492139Y00289631D01*
X01493826Y00291831D01*
X01494887Y00294392D01*
X01495249Y00297140D01*
Y00304640D01*
X01494887Y00307388D01*
X01493826Y00309949D01*
X01492139Y00312149D01*
X01489939Y00313836D01*
X01487738Y00314748D01*
Y00337602D01*
X01487501Y00338791D01*
X01486828Y00339800D01*
X01485340Y00341287D01*
X01484331Y00341961D01*
X01483142Y00342198D01*
X01414780D01*
X01413591Y00341961D01*
X01412583Y00341287D01*
X01399523Y00328228D01*
X01336326D01*
Y00338582D01*
X01337371D01*
Y00351917D01*
X01336326D01*
Y00354466D01*
X01336089Y00355655D01*
X01335415Y00356663D01*
X01330995Y00361083D01*
X01329987Y00361757D01*
X01328798Y00361993D01*
X01320788D01*
X01320501Y00362686D01*
X01327245Y00369431D01*
X01328735D01*
Y00365887D01*
X01337371D01*
Y00375486D01*
X01337951Y00375961D01*
X01338360Y00375880D01*
X01518702D01*
X01519891Y00376117D01*
X01520900Y00376790D01*
X01522388Y00378278D01*
X01523061Y00379286D01*
X01523298Y00380476D01*
Y00510322D01*
X01523061Y00511511D01*
X01522388Y00512520D01*
X01520900Y00514007D01*
X01519891Y00514681D01*
X01518702Y00514918D01*
X01512378D01*
Y00517388D01*
X01484822D01*
Y00514918D01*
X01477578D01*
Y00572770D01*
Y00617521D01*
X01477888Y00617649D01*
X01479304Y00618736D01*
X01480391Y00620152D01*
X01481073Y00621801D01*
X01481306Y00623570D01*
X01481073Y00625339D01*
X01480391Y00626988D01*
X01479304Y00628404D01*
X01477888Y00629491D01*
X01476239Y00630173D01*
X01474470Y00630406D01*
X01472701Y00630173D01*
X01471052Y00629491D01*
X01469636Y00628404D01*
X01468549Y00626988D01*
X01467867Y00625339D01*
X01467634Y00623570D01*
X01467867Y00621801D01*
X01468549Y00620152D01*
X01469636Y00618736D01*
X01471052Y00617649D01*
X01471362Y00617521D01*
Y00581253D01*
X01470669Y00580966D01*
X01455078Y00596558D01*
X01454069Y00597231D01*
X01452880Y00597468D01*
X01425848D01*
Y00600758D01*
X01408792D01*
Y00585702D01*
X01425848D01*
Y00591252D01*
X01451593D01*
X01471362Y00571483D01*
Y00513298D01*
X01471599Y00512109D01*
X01472272Y00511100D01*
X01473760Y00509613D01*
X01474769Y00508939D01*
X01475958Y00508702D01*
X01484822D01*
Y00506232D01*
X01512378D01*
Y00508702D01*
X01517082D01*
Y00382096D01*
X01339647D01*
X01339053Y00382690D01*
X01338045Y00383363D01*
X01336855Y00383600D01*
X01264688D01*
Y00389778D01*
X01259518D01*
Y00393812D01*
X01264688D01*
Y00399482D01*
X01275080D01*
X01276269Y00399719D01*
X01277278Y00400392D01*
X01288707Y00411823D01*
X01289381Y00412831D01*
X01289618Y00414020D01*
Y00482382D01*
X01289381Y00483571D01*
X01288707Y00484580D01*
X01287220Y00486068D01*
X01286211Y00486741D01*
X01285022Y00486978D01*
X01272428D01*
Y00492528D01*
X01266158D01*
Y00522763D01*
X01266352D01*
Y00537912D01*
X01280862D01*
Y00515620D01*
X01281099Y00514431D01*
X01281772Y00513423D01*
X01285582Y00509613D01*
X01286591Y00508939D01*
X01287780Y00508702D01*
X01436822D01*
Y00506232D01*
X01464378D01*
Y00517388D01*
X01436822D01*
Y00514918D01*
X01289067D01*
X01287078Y00516907D01*
Y00539532D01*
X01286841Y00540721D01*
X01286167Y00541730D01*
X01284680Y00543218D01*
X01283671Y00543891D01*
X01282482Y00544128D01*
X01255883D01*
X01254694Y00543891D01*
X01253686Y00543218D01*
X01250915Y00540446D01*
X01250241Y00539438D01*
X01250006Y00538257D01*
X01184748D01*
Y00522763D01*
X01204136D01*
X01204447Y00522013D01*
X01191002Y00508568D01*
X01180799D01*
X01180671Y00508878D01*
X01179584Y00510294D01*
X01178168Y00511381D01*
X01176519Y00512063D01*
X01174750Y00512296D01*
X01172981Y00512063D01*
X01171332Y00511381D01*
X01169916Y00510294D01*
X01168829Y00508878D01*
X01168147Y00507229D01*
X01167914Y00505460D01*
X01168147Y00503691D01*
X01168829Y00502042D01*
X01169916Y00500626D01*
X01171332Y00499539D01*
X01172981Y00498857D01*
X01174750Y00498624D01*
X01176519Y00498857D01*
X01178168Y00499539D01*
X01179584Y00500626D01*
X01180671Y00502042D01*
X01180799Y00502352D01*
X01189913D01*
X01190200Y00501659D01*
X01178979Y00490438D01*
X01178168Y00491061D01*
X01176519Y00491744D01*
X01174750Y00491977D01*
X01172981Y00491744D01*
X01171332Y00491061D01*
X01169916Y00489974D01*
X01168829Y00488558D01*
X01168147Y00486909D01*
X01167914Y00485140D01*
X01168147Y00483371D01*
X01168829Y00481722D01*
X01169916Y00480306D01*
X01171332Y00479219D01*
X01172981Y00478536D01*
X01174750Y00478303D01*
X01176519Y00478536D01*
X01178168Y00479219D01*
X01179584Y00480306D01*
X01180671Y00481722D01*
X01181354Y00483371D01*
X01181452Y00484122D01*
X01214819Y00517489D01*
X01215493Y00518497D01*
X01215730Y00519686D01*
Y00522763D01*
X01223508D01*
X01223795Y00522070D01*
X01175785Y00474060D01*
X01174750Y00474197D01*
X01172981Y00473964D01*
X01171332Y00473281D01*
X01169916Y00472194D01*
X01168829Y00470778D01*
X01168147Y00469129D01*
X01167914Y00467360D01*
X01168147Y00465591D01*
X01168829Y00463942D01*
X01169916Y00462526D01*
X01171332Y00461439D01*
X01172981Y00460756D01*
X01174750Y00460523D01*
X01176519Y00460756D01*
X01178168Y00461439D01*
X01179584Y00462526D01*
X01180671Y00463942D01*
X01181354Y00465591D01*
X01181587Y00467360D01*
X01181354Y00469129D01*
X01180853Y00470338D01*
X01229249Y00518734D01*
X01229942Y00518447D01*
Y00509167D01*
X01195413Y00474637D01*
X01194739Y00473629D01*
X01194502Y00472440D01*
Y00452688D01*
X01182069D01*
X01181941Y00452998D01*
X01180854Y00454414D01*
X01179438Y00455501D01*
X01177789Y00456184D01*
X01176020Y00456417D01*
X01174251Y00456184D01*
X01172602Y00455501D01*
X01171186Y00454414D01*
X01170099Y00452998D01*
X01169417Y00451349D01*
X01169184Y00449580D01*
X01169417Y00447811D01*
X01170099Y00446162D01*
X01171186Y00444746D01*
X01172602Y00443659D01*
X01174251Y00442976D01*
X01176020Y00442743D01*
X01177789Y00442976D01*
X01179438Y00443659D01*
X01180854Y00444746D01*
X01181941Y00446162D01*
X01182069Y00446472D01*
X01196122D01*
X01197311Y00446709D01*
X01198320Y00447383D01*
X01199808Y00448870D01*
X01200481Y00449879D01*
X01200718Y00451068D01*
Y00471153D01*
X01235247Y00505682D01*
X01235921Y00506691D01*
X01236158Y00507880D01*
Y00522763D01*
X01254942D01*
Y00507497D01*
X01252203Y00504758D01*
X01241008D01*
X01239819Y00504521D01*
X01238810Y00503848D01*
X01237322Y00502360D01*
X01236649Y00501351D01*
X01236412Y00500162D01*
Y00492528D01*
X01230742D01*
Y00477290D01*
X01229980D01*
Y00469520D01*
X01239520D01*
Y00468250D01*
X01240790D01*
Y00459210D01*
X01249060D01*
Y00466157D01*
X01254110D01*
Y00459210D01*
X01262380D01*
Y00468250D01*
X01263650D01*
Y00469520D01*
X01273190D01*
Y00477290D01*
X01272428D01*
Y00480762D01*
X01283402D01*
Y00415307D01*
X01273793Y00405698D01*
X01264688D01*
Y00411368D01*
X01259518D01*
Y00421422D01*
X01259281Y00422611D01*
X01258607Y00423620D01*
X01257120Y00425107D01*
X01256111Y00425781D01*
X01254922Y00426018D01*
X01158257D01*
X01156268Y00428007D01*
Y00497622D01*
X01156050Y00498718D01*
Y00515385D01*
X01193457Y00552793D01*
X01263067Y00622402D01*
X01274541D01*
Y00621780D01*
X01283050D01*
Y00619240D01*
X01274541D01*
Y00616446D01*
X01275303D01*
Y00607208D01*
Y00597208D01*
Y00587208D01*
Y00577208D01*
Y00567208D01*
Y00557208D01*
Y00547208D01*
X01290797D01*
Y00547402D01*
X01299912D01*
Y00525998D01*
X01300149Y00524809D01*
X01300822Y00523800D01*
X01302310Y00522313D01*
X01303319Y00521639D01*
X01304508Y00521402D01*
X01436822D01*
Y00518932D01*
X01464378D01*
Y00530088D01*
X01436822D01*
Y00527618D01*
X01306128D01*
Y00546656D01*
X01306878Y00546884D01*
X01307173Y00546442D01*
X01314325Y00539290D01*
X01314196Y00538979D01*
X01313963Y00537210D01*
X01314196Y00535441D01*
X01314879Y00533792D01*
X01315966Y00532376D01*
X01317382Y00531289D01*
X01319031Y00530606D01*
X01320800Y00530373D01*
X01322569Y00530606D01*
X01324218Y00531289D01*
X01325634Y00532376D01*
X01326721Y00533792D01*
X01327404Y00535441D01*
X01327637Y00537210D01*
X01327404Y00538979D01*
X01326721Y00540628D01*
X01325634Y00542044D01*
X01324218Y00543131D01*
X01322569Y00543814D01*
X01320800Y00544047D01*
X01319031Y00543814D01*
X01318720Y00543685D01*
X01312478Y00549927D01*
Y00587067D01*
X01313228Y00587377D01*
X01317692Y00582913D01*
Y00561039D01*
X01317382Y00560911D01*
X01315966Y00559824D01*
X01314879Y00558408D01*
X01314196Y00556759D01*
X01313963Y00554990D01*
X01314196Y00553221D01*
X01314879Y00551572D01*
X01315966Y00550156D01*
X01317382Y00549069D01*
X01319031Y00548386D01*
X01320800Y00548153D01*
X01322569Y00548386D01*
X01324218Y00549069D01*
X01325634Y00550156D01*
X01326721Y00551572D01*
X01327404Y00553221D01*
X01327637Y00554990D01*
X01327404Y00556759D01*
X01326721Y00558408D01*
X01325634Y00559824D01*
X01324218Y00560911D01*
X01323908Y00561039D01*
Y00584200D01*
X01323827Y00584608D01*
X01324518Y00584977D01*
X01326582Y00582913D01*
Y00569178D01*
X01326819Y00567989D01*
X01327493Y00566980D01*
X01328980Y00565493D01*
X01329989Y00564819D01*
X01331178Y00564582D01*
X01338812D01*
Y00560432D01*
X01353868D01*
Y00577488D01*
X01338812D01*
Y00570798D01*
X01332798D01*
Y00584200D01*
X01332561Y00585389D01*
X01331888Y00586398D01*
X01326513Y00591772D01*
X01326823Y00592522D01*
X01342691D01*
X01342819Y00592212D01*
X01343906Y00590796D01*
X01345322Y00589709D01*
X01346971Y00589026D01*
X01348740Y00588793D01*
X01350509Y00589026D01*
X01352158Y00589709D01*
X01353574Y00590796D01*
X01354661Y00592212D01*
X01355343Y00593861D01*
X01355576Y00595630D01*
X01355343Y00597399D01*
X01354661Y00599048D01*
X01353574Y00600464D01*
X01352158Y00601551D01*
X01350509Y00602234D01*
X01348740Y00602467D01*
X01346971Y00602234D01*
X01345322Y00601551D01*
X01343906Y00600464D01*
X01342819Y00599048D01*
X01342691Y00598738D01*
X01327167D01*
X01314643Y00611262D01*
X01314904Y00612062D01*
X01315171Y00612104D01*
X01321142Y00606133D01*
X01322151Y00605459D01*
X01323340Y00605222D01*
X01357931D01*
X01358059Y00604912D01*
X01359146Y00603496D01*
X01360562Y00602409D01*
X01362211Y00601726D01*
X01363980Y00601493D01*
X01365749Y00601726D01*
X01367398Y00602409D01*
X01368814Y00603496D01*
X01369901Y00604912D01*
X01370583Y00606561D01*
X01370816Y00608330D01*
X01370583Y00610099D01*
X01369901Y00611748D01*
X01368814Y00613164D01*
X01367398Y00614251D01*
X01365749Y00614934D01*
X01363980Y00615167D01*
X01362211Y00614934D01*
X01360562Y00614251D01*
X01359146Y00613164D01*
X01358059Y00611748D01*
X01357931Y00611438D01*
X01324627D01*
X01318358Y00617707D01*
X01317349Y00618381D01*
X01317168Y00618417D01*
X01316950Y00619135D01*
X01319167Y00621352D01*
X01323960D01*
Y00615420D01*
X01332230D01*
Y00624460D01*
X01333500D01*
Y00625730D01*
X01343040D01*
Y00633500D01*
X01342278D01*
Y00648738D01*
X01336608D01*
Y00689610D01*
X01336371Y00690799D01*
X01335697Y00691807D01*
X01330935Y00696570D01*
X01329927Y00697244D01*
X01328737Y00697480D01*
X01287668D01*
Y00701270D01*
X01288430D01*
Y00709040D01*
X01269350D01*
Y00701270D01*
X01270112D01*
Y00698323D01*
X01269669Y00697659D01*
X01269621Y00697418D01*
X01264538D01*
X01263349Y00697181D01*
X01262340Y00696508D01*
X01261627Y00695794D01*
X01260934Y00696081D01*
Y00730849D01*
X01418486D01*
X01419008Y00730952D01*
X01466850D01*
X01468039Y00731189D01*
X01469048Y00731862D01*
X01469427Y00732243D01*
X01470101Y00733251D01*
X01470338Y00734440D01*
Y00778622D01*
X01475508D01*
Y00796178D01*
X01469958D01*
Y00820842D01*
X01497138D01*
Y00845398D01*
D02*
G37*
G36*
X01397530Y00796940D02*
X01389760D01*
Y00788670D01*
X01397530D01*
Y00796940D01*
D02*
G37*
G36*
X01449960D02*
X01442190D01*
Y00788670D01*
X01449960D01*
Y00796940D01*
D02*
G37*
G36*
Y00786130D02*
X01442190D01*
Y00777860D01*
X01449960D01*
Y00786130D01*
D02*
G37*
G36*
X01397530D02*
X01389760D01*
Y00777860D01*
X01397530D01*
Y00786130D01*
D02*
G37*
G36*
X01115060Y00750388D02*
Y00744220D01*
X01121228D01*
X01121136Y00744918D01*
X01120376Y00746752D01*
X01119168Y00748328D01*
X01117592Y00749536D01*
X01115758Y00750296D01*
X01115060Y00750388D01*
D02*
G37*
G36*
X01112520D02*
X01111822Y00750296D01*
X01109987Y00749536D01*
X01108412Y00748328D01*
X01107204Y00746752D01*
X01106444Y00744918D01*
X01106352Y00744220D01*
X01112520D01*
Y00750388D01*
D02*
G37*
G36*
X01288430Y00719350D02*
X01280160D01*
Y00711580D01*
X01288430D01*
Y00719350D01*
D02*
G37*
G36*
X01277620D02*
X01269350D01*
Y00711580D01*
X01277620D01*
Y00719350D01*
D02*
G37*
G36*
X00827400Y00718500D02*
X00817880D01*
Y00711230D01*
X00827400D01*
Y00718500D01*
D02*
G37*
G36*
X00815340D02*
X00805820D01*
Y00711230D01*
X00815340D01*
Y00718500D01*
D02*
G37*
G36*
X00827400Y00708690D02*
X00817880D01*
Y00701420D01*
X00827400D01*
Y00708690D01*
D02*
G37*
G36*
X00815340D02*
X00805820D01*
Y00701420D01*
X00815340D01*
Y00708690D01*
D02*
G37*
G36*
X00861060Y00710416D02*
X00859291Y00710183D01*
X00857642Y00709501D01*
X00856226Y00708414D01*
X00855139Y00706998D01*
X00854456Y00705349D01*
X00854223Y00703580D01*
X00854456Y00701811D01*
X00855139Y00700162D01*
X00856226Y00698746D01*
X00857642Y00697659D01*
X00859291Y00696976D01*
X00861060Y00696743D01*
X00862829Y00696976D01*
X00864478Y00697659D01*
X00865894Y00698746D01*
X00866981Y00700162D01*
X00867109Y00700472D01*
X00873303D01*
X00882132Y00691643D01*
Y00690118D01*
X00880668D01*
Y00673354D01*
X00889812D01*
Y00690118D01*
X00888348D01*
Y00692930D01*
X00888111Y00694119D01*
X00887438Y00695127D01*
X00876787Y00705778D01*
X00875779Y00706451D01*
X00874590Y00706688D01*
X00867109D01*
X00866981Y00706998D01*
X00865894Y00708414D01*
X00864478Y00709501D01*
X00862829Y00710183D01*
X00861060Y00710416D01*
D02*
G37*
G36*
X00509270Y00677510D02*
X00506485Y00677143D01*
X00503890Y00676068D01*
X00501661Y00674359D01*
X00499952Y00672130D01*
X00498877Y00669535D01*
X00498510Y00666750D01*
X00498877Y00663965D01*
X00499952Y00661370D01*
X00501661Y00659141D01*
X00503890Y00657431D01*
X00506485Y00656357D01*
X00509270Y00655990D01*
X00512055Y00656357D01*
X00514650Y00657431D01*
X00516879Y00659141D01*
X00518588Y00661370D01*
X00519663Y00663965D01*
X00520030Y00666750D01*
X00519663Y00669535D01*
X00518588Y00672130D01*
X00516879Y00674359D01*
X00514650Y00676068D01*
X00512055Y00677143D01*
X00509270Y00677510D01*
D02*
G37*
G36*
X00560070Y00664810D02*
X00557285Y00664443D01*
X00554690Y00663369D01*
X00552462Y00661658D01*
X00550751Y00659430D01*
X00549677Y00656835D01*
X00549310Y00654050D01*
X00549677Y00651265D01*
X00550751Y00648670D01*
X00552462Y00646441D01*
X00554690Y00644732D01*
X00557285Y00643657D01*
X00560070Y00643290D01*
X00562855Y00643657D01*
X00565450Y00644732D01*
X00567678Y00646441D01*
X00569389Y00648670D01*
X00570463Y00651265D01*
X00570830Y00654050D01*
X00570463Y00656835D01*
X00569389Y00659430D01*
X00567678Y00661658D01*
X00565450Y00663369D01*
X00562855Y00664443D01*
X00560070Y00664810D01*
D02*
G37*
G36*
X00963568Y00670608D02*
X00946512D01*
Y00655552D01*
X00951932D01*
Y00630996D01*
X00907457D01*
X00907348Y00631105D01*
Y00649478D01*
X00908812D01*
Y00666242D01*
X00900074D01*
Y00667004D01*
X00896010D01*
Y00657860D01*
X00893470D01*
Y00667004D01*
X00889406D01*
Y00666242D01*
X00880668D01*
Y00649478D01*
X00882132D01*
Y00607456D01*
X00877192D01*
Y00601786D01*
X00840508D01*
Y00606698D01*
X00825452D01*
Y00589642D01*
X00840508D01*
Y00595570D01*
X00877192D01*
Y00589900D01*
X00892430D01*
Y00589138D01*
X00900200D01*
Y00598678D01*
X00902740D01*
Y00589138D01*
X00910510D01*
Y00595570D01*
X00929110D01*
Y00588880D01*
X00936130D01*
Y00598170D01*
Y00607460D01*
X00929110D01*
Y00601786D01*
X00910510D01*
Y00608218D01*
X00904578D01*
Y00613538D01*
X00904341Y00614727D01*
X00903668Y00615736D01*
X00897848Y00621555D01*
Y00648716D01*
X00900074D01*
Y00649478D01*
X00901132D01*
Y00629818D01*
X00901369Y00628629D01*
X00902042Y00627621D01*
X00903972Y00625690D01*
X00904981Y00625017D01*
X00906170Y00624780D01*
X00951792D01*
Y00606698D01*
X00947372D01*
Y00589642D01*
X00962428D01*
Y00606698D01*
X00958008D01*
Y00627184D01*
X00958148Y00627888D01*
Y00655552D01*
X00963568D01*
Y00670608D01*
D02*
G37*
G36*
X01003300Y00724387D02*
X01001531Y00724154D01*
X00999882Y00723471D01*
X00998466Y00722384D01*
X00997379Y00720968D01*
X00996696Y00719319D01*
X00996463Y00717550D01*
X00996696Y00715781D01*
X00997379Y00714132D01*
X00998466Y00712716D01*
X00999882Y00711629D01*
X01001531Y00710947D01*
X01003300Y00710714D01*
X01005069Y00710947D01*
X01006718Y00711629D01*
X01008134Y00712716D01*
X01009221Y00714132D01*
X01009349Y00714442D01*
X01050273D01*
X01141403Y00623312D01*
X01142411Y00622639D01*
X01143600Y00622402D01*
X01159541D01*
Y00621780D01*
X01176559D01*
Y00624574D01*
X01175797D01*
Y00628812D01*
X01160303D01*
Y00628618D01*
X01144887D01*
X01053757Y00719747D01*
X01052749Y00720421D01*
X01051560Y00720658D01*
X01009349D01*
X01009221Y00720968D01*
X01008134Y00722384D01*
X01006718Y00723471D01*
X01005069Y00724154D01*
X01003300Y00724387D01*
D02*
G37*
G36*
X01343040Y00623190D02*
X01334770D01*
Y00615420D01*
X01343040D01*
Y00623190D01*
D02*
G37*
G36*
X00945690Y00607460D02*
X00938670D01*
Y00599440D01*
X00945690D01*
Y00607460D01*
D02*
G37*
G36*
X00560070Y00614010D02*
X00557285Y00613643D01*
X00554690Y00612569D01*
X00552462Y00610858D01*
X00550751Y00608630D01*
X00549677Y00606035D01*
X00549310Y00603250D01*
X00549677Y00600465D01*
X00550751Y00597870D01*
X00552462Y00595642D01*
X00554690Y00593932D01*
X00557285Y00592857D01*
X00560070Y00592490D01*
X00562855Y00592857D01*
X00565450Y00593932D01*
X00567678Y00595642D01*
X00569389Y00597870D01*
X00570463Y00600465D01*
X00570830Y00603250D01*
X00570463Y00606035D01*
X00569389Y00608630D01*
X00567678Y00610858D01*
X00565450Y00612569D01*
X00562855Y00613643D01*
X00560070Y00614010D01*
D02*
G37*
G36*
X00510540Y00601911D02*
Y00591820D01*
X00520631D01*
X00520406Y00593534D01*
X00519254Y00596314D01*
X00517422Y00598702D01*
X00515034Y00600534D01*
X00512254Y00601686D01*
X00510540Y00601911D01*
D02*
G37*
G36*
X00508000D02*
X00506286Y00601686D01*
X00503506Y00600534D01*
X00501118Y00598702D01*
X00499286Y00596314D01*
X00498134Y00593534D01*
X00497909Y00591820D01*
X00508000D01*
Y00601911D01*
D02*
G37*
G36*
X00730250Y00715578D02*
X00576580D01*
X00575391Y00715341D01*
X00574383Y00714668D01*
X00557873Y00698158D01*
X00557199Y00697149D01*
X00556962Y00695960D01*
Y00689710D01*
X00554690Y00688768D01*
X00552462Y00687058D01*
X00550751Y00684830D01*
X00549677Y00682235D01*
X00549310Y00679450D01*
X00549677Y00676665D01*
X00550751Y00674070D01*
X00552462Y00671842D01*
X00554690Y00670132D01*
X00557285Y00669057D01*
X00560070Y00668690D01*
X00562855Y00669057D01*
X00565450Y00670132D01*
X00567678Y00671842D01*
X00569389Y00674070D01*
X00570463Y00676665D01*
X00570830Y00679450D01*
X00570463Y00682235D01*
X00569389Y00684830D01*
X00567678Y00687058D01*
X00565450Y00688768D01*
X00563178Y00689710D01*
Y00694673D01*
X00577867Y00709362D01*
X00728963D01*
X00777582Y00660742D01*
X00778591Y00660069D01*
X00779780Y00659832D01*
X00813502D01*
Y00606698D01*
X00807952D01*
Y00589642D01*
X00823008D01*
Y00606698D01*
X00819718D01*
Y00661670D01*
Y00674182D01*
X00826638D01*
Y00689738D01*
X00806582D01*
Y00674182D01*
X00813502D01*
Y00666048D01*
X00781067D01*
X00732448Y00714668D01*
X00731439Y00715341D01*
X00730250Y00715578D01*
D02*
G37*
G36*
X00945690Y00596900D02*
X00938670D01*
Y00588880D01*
X00945690D01*
Y00596900D01*
D02*
G37*
G36*
X00622300Y00586558D02*
Y00580390D01*
X00628468D01*
X00628376Y00581088D01*
X00627616Y00582923D01*
X00626408Y00584498D01*
X00624832Y00585706D01*
X00622998Y00586466D01*
X00622300Y00586558D01*
D02*
G37*
G36*
X00619760D02*
X00619062Y00586466D01*
X00617228Y00585706D01*
X00615652Y00584498D01*
X00614444Y00582923D01*
X00613684Y00581088D01*
X00613592Y00580390D01*
X00619760D01*
Y00586558D01*
D02*
G37*
G36*
X00628468Y00577850D02*
X00622300D01*
Y00571682D01*
X00622998Y00571774D01*
X00624832Y00572534D01*
X00626408Y00573742D01*
X00627616Y00575317D01*
X00628376Y00577152D01*
X00628468Y00577850D01*
D02*
G37*
G36*
X00619760D02*
X00613592D01*
X00613684Y00577152D01*
X00614444Y00575317D01*
X00615652Y00573742D01*
X00617228Y00572534D01*
X00619062Y00571774D01*
X00619760Y00571682D01*
Y00577850D01*
D02*
G37*
G36*
X01372130Y00578250D02*
X01365110D01*
Y00570230D01*
X01372130D01*
Y00578250D01*
D02*
G37*
G36*
X01362570D02*
X01355550D01*
Y00570230D01*
X01362570D01*
Y00578250D01*
D02*
G37*
G36*
X01372130Y00567690D02*
X01365110D01*
Y00559670D01*
X01372130D01*
Y00567690D01*
D02*
G37*
G36*
X01362570D02*
X01355550D01*
Y00559670D01*
X01362570D01*
Y00567690D01*
D02*
G37*
G36*
X01512378Y00568188D02*
X01484822D01*
Y00557032D01*
X01512378D01*
Y00568188D01*
D02*
G37*
G36*
X01425848Y00618258D02*
X01408792D01*
Y00609358D01*
X01397218D01*
X01396029Y00609121D01*
X01395020Y00608447D01*
X01392263Y00605690D01*
X01391589Y00604681D01*
X01391352Y00603492D01*
Y00587709D01*
X01391042Y00587581D01*
X01389626Y00586494D01*
X01388539Y00585078D01*
X01387856Y00583429D01*
X01387623Y00581660D01*
X01387856Y00579891D01*
X01388539Y00578242D01*
X01389626Y00576826D01*
X01391042Y00575739D01*
X01392691Y00575056D01*
X01394460Y00574823D01*
X01396229Y00575056D01*
X01397878Y00575739D01*
X01399294Y00576826D01*
X01400381Y00578242D01*
X01400509Y00578552D01*
X01404603D01*
X01421380Y00561775D01*
X01422389Y00561101D01*
X01423578Y00560864D01*
X01436822D01*
Y00557032D01*
X01464378D01*
Y00568188D01*
X01436822D01*
Y00567080D01*
X01424865D01*
X01408087Y00583857D01*
X01407079Y00584531D01*
X01405890Y00584768D01*
X01400509D01*
X01400381Y00585078D01*
X01399294Y00586494D01*
X01397878Y00587581D01*
X01397568Y00587709D01*
Y00602205D01*
X01398505Y00603142D01*
X01412840D01*
X01413140Y00603202D01*
X01425848D01*
Y00618258D01*
D02*
G37*
G36*
X01512378Y00555488D02*
X01484822D01*
Y00544332D01*
X01512378D01*
Y00555488D01*
D02*
G37*
G36*
X01464378D02*
X01436822D01*
Y00544332D01*
X01464378D01*
Y00555488D01*
D02*
G37*
G36*
X01513140Y00543550D02*
X01499870D01*
Y00538480D01*
X01513140D01*
Y00543550D01*
D02*
G37*
G36*
X01497330D02*
X01484060D01*
Y00538480D01*
X01497330D01*
Y00543550D01*
D02*
G37*
G36*
X00560070Y00639410D02*
X00557285Y00639043D01*
X00554690Y00637968D01*
X00552462Y00636259D01*
X00550751Y00634030D01*
X00549677Y00631435D01*
X00549310Y00628650D01*
X00549677Y00625865D01*
X00550751Y00623270D01*
X00552462Y00621041D01*
X00554690Y00619332D01*
X00557285Y00618257D01*
X00560070Y00617890D01*
X00562855Y00618257D01*
X00565450Y00619332D01*
X00567678Y00621041D01*
X00569389Y00623270D01*
X00570330Y00625542D01*
X00575293D01*
X00595973Y00604863D01*
X00596981Y00604189D01*
X00598170Y00603952D01*
X00693403D01*
X00716115Y00581241D01*
X00717123Y00580567D01*
X00718312Y00580330D01*
X00841485D01*
X00865572Y00556243D01*
Y00544529D01*
X00865262Y00544401D01*
X00863846Y00543314D01*
X00862759Y00541898D01*
X00862076Y00540249D01*
X00861843Y00538480D01*
X00862076Y00536711D01*
X00862759Y00535062D01*
X00863846Y00533646D01*
X00865262Y00532559D01*
X00866911Y00531876D01*
X00868680Y00531643D01*
X00870449Y00531876D01*
X00872098Y00532559D01*
X00873514Y00533646D01*
X00874601Y00535062D01*
X00875284Y00536711D01*
X00875517Y00538480D01*
X00875284Y00540249D01*
X00874601Y00541898D01*
X00873514Y00543314D01*
X00872098Y00544401D01*
X00871788Y00544529D01*
Y00557530D01*
X00871551Y00558719D01*
X00870878Y00559728D01*
X00844969Y00585635D01*
X00843961Y00586309D01*
X00842772Y00586546D01*
X00719599D01*
X00696888Y00609258D01*
X00695879Y00609931D01*
X00694690Y00610168D01*
X00599457D01*
X00578778Y00630848D01*
X00577769Y00631521D01*
X00576580Y00631758D01*
X00570330D01*
X00569389Y00634030D01*
X00567678Y00636259D01*
X00565450Y00637968D01*
X00562855Y00639043D01*
X00560070Y00639410D01*
D02*
G37*
G36*
X01464378Y00542788D02*
X01436822D01*
Y00531632D01*
X01464378D01*
Y00542788D01*
D02*
G37*
G36*
X01513140Y00535940D02*
X01484060D01*
Y00531600D01*
X01484060Y00530870D01*
X01484060Y00530120D01*
Y00525780D01*
X01513140D01*
Y00530120D01*
X01513140Y00530850D01*
X01513140Y00531600D01*
Y00535940D01*
D02*
G37*
G36*
Y00523240D02*
X01499870D01*
Y00518170D01*
X01513140D01*
Y00523240D01*
D02*
G37*
G36*
X01497330D02*
X01484060D01*
Y00518170D01*
X01497330D01*
Y00523240D01*
D02*
G37*
G36*
X00560070Y00537810D02*
X00557285Y00537443D01*
X00554690Y00536368D01*
X00552462Y00534659D01*
X00550751Y00532430D01*
X00549677Y00529835D01*
X00549310Y00527050D01*
X00549677Y00524265D01*
X00550751Y00521670D01*
X00552462Y00519441D01*
X00554690Y00517732D01*
X00557285Y00516657D01*
X00560070Y00516290D01*
X00562855Y00516657D01*
X00565450Y00517732D01*
X00567678Y00519441D01*
X00569389Y00521670D01*
X00570463Y00524265D01*
X00570830Y00527050D01*
X00570463Y00529835D01*
X00569389Y00532430D01*
X00567678Y00534659D01*
X00565450Y00536368D01*
X00562855Y00537443D01*
X00560070Y00537810D01*
D02*
G37*
G36*
X00972820Y00636757D02*
X00971051Y00636524D01*
X00969402Y00635841D01*
X00967986Y00634754D01*
X00966899Y00633338D01*
X00966217Y00631689D01*
X00965984Y00629920D01*
X00966217Y00628151D01*
X00966899Y00626502D01*
X00967986Y00625086D01*
X00969402Y00623999D01*
X00970982Y00623345D01*
Y00517458D01*
X00906780D01*
X00905591Y00517221D01*
X00904583Y00516548D01*
X00893620Y00505585D01*
X00893309Y00505714D01*
X00891540Y00505947D01*
X00889771Y00505714D01*
X00888122Y00505031D01*
X00886706Y00503944D01*
X00885619Y00502528D01*
X00884937Y00500879D01*
X00884704Y00499110D01*
X00884937Y00497341D01*
X00885619Y00495692D01*
X00886706Y00494276D01*
X00888122Y00493189D01*
X00888762Y00492924D01*
Y00469900D01*
X00887628D01*
Y00453136D01*
X00896772D01*
Y00469900D01*
X00894978D01*
Y00493204D01*
X00896374Y00494276D01*
X00897461Y00495692D01*
X00898143Y00497341D01*
X00898376Y00499110D01*
X00898143Y00500879D01*
X00898015Y00501190D01*
X00908067Y00511242D01*
X00972602D01*
X00973791Y00511479D01*
X00974800Y00512152D01*
X00976288Y00513640D01*
X00976961Y00514649D01*
X00977198Y00515838D01*
Y00624736D01*
X00977654Y00625086D01*
X00978741Y00626502D01*
X00979424Y00628151D01*
X00979657Y00629920D01*
X00979424Y00631689D01*
X00978741Y00633338D01*
X00977654Y00634754D01*
X00976238Y00635841D01*
X00974589Y00636524D01*
X00972820Y00636757D01*
D02*
G37*
G36*
X00509270Y00525110D02*
X00506485Y00524743D01*
X00503890Y00523669D01*
X00501661Y00521959D01*
X00499952Y00519730D01*
X00498877Y00517135D01*
X00498510Y00514350D01*
X00498877Y00511565D01*
X00499952Y00508970D01*
X00501661Y00506741D01*
X00503890Y00505032D01*
X00506485Y00503957D01*
X00509270Y00503590D01*
X00512055Y00503957D01*
X00514650Y00505032D01*
X00516879Y00506741D01*
X00518588Y00508970D01*
X00519663Y00511565D01*
X00520030Y00514350D01*
X00519663Y00517135D01*
X00518588Y00519730D01*
X00516879Y00521959D01*
X00514650Y00523669D01*
X00512055Y00524743D01*
X00509270Y00525110D01*
D02*
G37*
G36*
X01136030Y00482220D02*
X01127760D01*
Y00474450D01*
X01136030D01*
Y00482220D01*
D02*
G37*
G36*
X01097280Y00481330D02*
X01089010D01*
Y00473560D01*
X01097280D01*
Y00481330D01*
D02*
G37*
G36*
X00841370Y00479740D02*
X00831850D01*
Y00472470D01*
X00841370D01*
Y00479740D01*
D02*
G37*
G36*
X00829310D02*
X00819790D01*
Y00472470D01*
X00829310D01*
Y00479740D01*
D02*
G37*
G36*
X00841370Y00469930D02*
X00831850D01*
Y00462660D01*
X00841370D01*
Y00469930D01*
D02*
G37*
G36*
X00829310D02*
X00819790D01*
Y00462660D01*
X00829310D01*
Y00469930D01*
D02*
G37*
G36*
X01273190Y00466980D02*
X01264920D01*
Y00459210D01*
X01273190D01*
Y00466980D01*
D02*
G37*
G36*
X01238250D02*
X01229980D01*
Y00459210D01*
X01238250D01*
Y00466980D01*
D02*
G37*
G36*
X00907034Y00446786D02*
X00902970D01*
Y00437642D01*
X00900430D01*
Y00446786D01*
X00896366D01*
Y00446024D01*
X00887628D01*
Y00429260D01*
X00889207D01*
Y00392318D01*
X00884152D01*
Y00386648D01*
X00855748D01*
Y00392068D01*
X00840692D01*
Y00375012D01*
X00855748D01*
Y00380432D01*
X00884152D01*
Y00374762D01*
X00899390D01*
Y00374000D01*
X00907160D01*
Y00383540D01*
X00909700D01*
Y00374000D01*
X00917470D01*
Y00380432D01*
X00940540D01*
Y00374250D01*
X00947560D01*
Y00383540D01*
Y00392830D01*
X00940540D01*
Y00386648D01*
X00917470D01*
Y00393080D01*
X00911538D01*
Y00406020D01*
X00911301Y00407209D01*
X00910628Y00408218D01*
X00904808Y00414037D01*
Y00428498D01*
X00907034D01*
Y00429260D01*
X00908092D01*
Y00416778D01*
X00908329Y00415589D01*
X00909003Y00414580D01*
X00910490Y00413092D01*
X00911499Y00412419D01*
X00912688Y00412182D01*
X00963222D01*
Y00392068D01*
X00958802D01*
Y00375012D01*
X00973858D01*
Y00392068D01*
X00969438D01*
Y00415290D01*
Y00419666D01*
X00969578Y00420370D01*
Y00430622D01*
X00974998D01*
Y00445678D01*
X00957942D01*
Y00430622D01*
X00963362D01*
Y00421074D01*
X00963222Y00420370D01*
Y00418398D01*
X00914308D01*
Y00429260D01*
X00915772D01*
Y00446024D01*
X00907034D01*
Y00446786D01*
D02*
G37*
G36*
X00455730Y00424040D02*
X00441960D01*
Y00414020D01*
X00455730D01*
Y00424040D01*
D02*
G37*
G36*
X00439420D02*
X00425650D01*
Y00414020D01*
X00439420D01*
Y00424040D01*
D02*
G37*
G36*
X01239140Y00412130D02*
X01231370D01*
Y00403860D01*
X01239140D01*
Y00412130D01*
D02*
G37*
G36*
X00455730Y00411480D02*
X00441960D01*
Y00401460D01*
X00455730D01*
Y00411480D01*
D02*
G37*
G36*
X00439420D02*
X00425650D01*
Y00401460D01*
X00439420D01*
Y00411480D01*
D02*
G37*
G36*
X00957120Y00392830D02*
X00950100D01*
Y00384810D01*
X00957120D01*
Y00392830D01*
D02*
G37*
G36*
X00444440Y00397969D02*
X00436940D01*
X00434192Y00397607D01*
X00431631Y00396546D01*
X00429431Y00394859D01*
X00427744Y00392659D01*
X00426683Y00390098D01*
X00426321Y00387350D01*
X00426683Y00384602D01*
X00427744Y00382041D01*
X00429431Y00379841D01*
X00431631Y00378154D01*
X00434192Y00377093D01*
X00436940Y00376731D01*
X00444440D01*
X00447188Y00377093D01*
X00449749Y00378154D01*
X00451949Y00379841D01*
X00453636Y00382041D01*
X00454697Y00384602D01*
X00455059Y00387350D01*
X00454697Y00390098D01*
X00453636Y00392659D01*
X00451949Y00394859D01*
X00449749Y00396546D01*
X00447188Y00397607D01*
X00444440Y00397969D01*
D02*
G37*
G36*
X00570738Y00512318D02*
X00549402D01*
Y00490982D01*
X00556962D01*
Y00482600D01*
X00557199Y00481411D01*
X00557873Y00480402D01*
X00615023Y00423252D01*
X00616031Y00422579D01*
X00617220Y00422342D01*
X00827612D01*
Y00392068D01*
X00823192D01*
Y00375012D01*
X00838248D01*
Y00392068D01*
X00833828D01*
Y00425310D01*
X00833688Y00426014D01*
Y00435422D01*
X00840608D01*
Y00450978D01*
X00820552D01*
Y00435422D01*
X00827472D01*
Y00428558D01*
X00618507D01*
X00563178Y00483887D01*
Y00490982D01*
X00570738D01*
Y00512318D01*
D02*
G37*
G36*
X00957120Y00382270D02*
X00950100D01*
Y00374250D01*
X00957120D01*
Y00382270D01*
D02*
G37*
G36*
X01239140Y00355600D02*
X01231370D01*
Y00347330D01*
X01239140D01*
Y00355600D01*
D02*
G37*
G36*
X00673995Y00362072D02*
X00672225Y00361839D01*
X00670576Y00361156D01*
X00669160Y00360070D01*
X00668074Y00358654D01*
X00667391Y00357005D01*
X00667158Y00355235D01*
X00667391Y00353466D01*
X00668074Y00351817D01*
X00669160Y00350401D01*
X00670576Y00349315D01*
X00672225Y00348632D01*
X00673995Y00348399D01*
X00674561Y00348474D01*
X00697572Y00325462D01*
X00698581Y00324789D01*
X00699770Y00324552D01*
X01200451D01*
X01200579Y00324242D01*
X01201666Y00322826D01*
X01203082Y00321739D01*
X01204731Y00321057D01*
X01206500Y00320824D01*
X01208269Y00321057D01*
X01209918Y00321739D01*
X01211334Y00322826D01*
X01212421Y00324242D01*
X01213103Y00325891D01*
X01213336Y00327660D01*
X01213103Y00329429D01*
X01212421Y00331078D01*
X01211334Y00332494D01*
X01209918Y00333581D01*
X01208269Y00334263D01*
X01206500Y00334496D01*
X01204731Y00334263D01*
X01203082Y00333581D01*
X01201666Y00332494D01*
X01200579Y00331078D01*
X01200451Y00330768D01*
X00701057D01*
X00679942Y00351883D01*
X00680598Y00353466D01*
X00680831Y00355235D01*
X00680598Y00357005D01*
X00679915Y00358654D01*
X00678829Y00360070D01*
X00677413Y00361156D01*
X00675764Y00361839D01*
X00673995Y00362072D01*
D02*
G37*
G36*
X00482600Y00322281D02*
Y00306070D01*
X00493978D01*
Y00309800D01*
X00493547Y00313074D01*
X00492284Y00316124D01*
X00490274Y00318744D01*
X00487654Y00320754D01*
X00484604Y00322017D01*
X00482600Y00322281D01*
D02*
G37*
G36*
X00480060D02*
X00478056Y00322017D01*
X00475006Y00320754D01*
X00472386Y00318744D01*
X00470376Y00316124D01*
X00469113Y00313074D01*
X00468682Y00309800D01*
Y00306070D01*
X00480060D01*
Y00322281D01*
D02*
G37*
G36*
X01470520Y00315930D02*
X01460500D01*
Y00302160D01*
X01470520D01*
Y00315930D01*
D02*
G37*
G36*
X01457960D02*
X01447940D01*
Y00302160D01*
X01457960D01*
Y00315930D01*
D02*
G37*
G36*
X00594708Y00321578D02*
X00571152D01*
Y00288022D01*
X00594708D01*
Y00321578D01*
D02*
G37*
G36*
X00557530Y00321680D02*
X00554455Y00321275D01*
X00551590Y00320088D01*
X00549130Y00318200D01*
X00547242Y00315740D01*
X00546055Y00312875D01*
X00545650Y00309800D01*
Y00299800D01*
X00546055Y00296725D01*
X00547242Y00293860D01*
X00549130Y00291400D01*
X00551590Y00289512D01*
X00554455Y00288325D01*
X00557530Y00287920D01*
X00560605Y00288325D01*
X00563470Y00289512D01*
X00565930Y00291400D01*
X00567818Y00293860D01*
X00569005Y00296725D01*
X00569410Y00299800D01*
Y00309800D01*
X00569005Y00312875D01*
X00567818Y00315740D01*
X00565930Y00318200D01*
X00563470Y00320088D01*
X00560605Y00321275D01*
X00557530Y00321680D01*
D02*
G37*
G36*
X00532130D02*
X00529055Y00321275D01*
X00526190Y00320088D01*
X00523730Y00318200D01*
X00521842Y00315740D01*
X00520655Y00312875D01*
X00520250Y00309800D01*
Y00299800D01*
X00520655Y00296725D01*
X00521842Y00293860D01*
X00523730Y00291400D01*
X00526190Y00289512D01*
X00529055Y00288325D01*
X00532130Y00287920D01*
X00535205Y00288325D01*
X00538070Y00289512D01*
X00540530Y00291400D01*
X00542418Y00293860D01*
X00543605Y00296725D01*
X00544010Y00299800D01*
Y00309800D01*
X00543605Y00312875D01*
X00542418Y00315740D01*
X00540530Y00318200D01*
X00538070Y00320088D01*
X00535205Y00321275D01*
X00532130Y00321680D01*
D02*
G37*
G36*
X00506730D02*
X00503655Y00321275D01*
X00500790Y00320088D01*
X00498330Y00318200D01*
X00496442Y00315740D01*
X00495255Y00312875D01*
X00494850Y00309800D01*
Y00299800D01*
X00495255Y00296725D01*
X00496442Y00293860D01*
X00498330Y00291400D01*
X00500790Y00289512D01*
X00503655Y00288325D01*
X00506730Y00287920D01*
X00509805Y00288325D01*
X00512670Y00289512D01*
X00515130Y00291400D01*
X00517018Y00293860D01*
X00518205Y00296725D01*
X00518610Y00299800D01*
Y00309800D01*
X00518205Y00312875D01*
X00517018Y00315740D01*
X00515130Y00318200D01*
X00512670Y00320088D01*
X00509805Y00321275D01*
X00506730Y00321680D01*
D02*
G37*
G36*
X00455930D02*
X00452855Y00321275D01*
X00449990Y00320088D01*
X00447530Y00318200D01*
X00445642Y00315740D01*
X00444455Y00312875D01*
X00444050Y00309800D01*
Y00299800D01*
X00444455Y00296725D01*
X00445642Y00293860D01*
X00447530Y00291400D01*
X00449990Y00289512D01*
X00452855Y00288325D01*
X00455930Y00287920D01*
X00459005Y00288325D01*
X00461870Y00289512D01*
X00464330Y00291400D01*
X00466218Y00293860D01*
X00467405Y00296725D01*
X00467810Y00299800D01*
Y00309800D01*
X00467405Y00312875D01*
X00466218Y00315740D01*
X00464330Y00318200D01*
X00461870Y00320088D01*
X00459005Y00321275D01*
X00455930Y00321680D01*
D02*
G37*
G36*
X00493978Y00303530D02*
X00482600D01*
Y00287319D01*
X00484604Y00287583D01*
X00487654Y00288846D01*
X00490274Y00290856D01*
X00492284Y00293476D01*
X00493547Y00296526D01*
X00493978Y00299800D01*
Y00303530D01*
D02*
G37*
G36*
X00480060D02*
X00468682D01*
Y00299800D01*
X00469113Y00296526D01*
X00470376Y00293476D01*
X00472386Y00290856D01*
X00475006Y00288846D01*
X00478056Y00287583D01*
X00480060Y00287319D01*
Y00303530D01*
D02*
G37*
G36*
X01470520Y00299620D02*
X01460500D01*
Y00285850D01*
X01470520D01*
Y00299620D01*
D02*
G37*
G36*
X01457960D02*
X01447940D01*
Y00285850D01*
X01457960D01*
Y00299620D01*
D02*
G37*
%LPD*%
G36*
X01224942Y00770913D02*
Y00766713D01*
X01224249Y00766426D01*
X01201077Y00789597D01*
X01200069Y00790271D01*
X01198880Y00790508D01*
X00577850D01*
X00576661Y00790271D01*
X00575653Y00789597D01*
X00466432Y00680378D01*
X00465759Y00679369D01*
X00465522Y00678180D01*
Y00579338D01*
X00465759Y00578149D01*
X00466432Y00577140D01*
X00467920Y00575653D01*
X00468929Y00574979D01*
X00470118Y00574742D01*
X00503015D01*
X00503269Y00573992D01*
X00501661Y00572758D01*
X00499952Y00570530D01*
X00498877Y00567935D01*
X00498510Y00565150D01*
X00498877Y00562365D01*
X00499952Y00559770D01*
X00501661Y00557542D01*
X00503277Y00556302D01*
X00503022Y00555552D01*
X00459038D01*
Y00680703D01*
X00570247Y00791912D01*
X01203943D01*
X01224942Y00770913D01*
D02*
G37*
G36*
X01154222Y00760682D02*
X01153406Y00760056D01*
X01152319Y00758640D01*
X01152191Y00758330D01*
X00988493D01*
X00987814Y00759214D01*
X00986398Y00760301D01*
X00985477Y00760682D01*
X00985626Y00761432D01*
X01153967D01*
X01154222Y00760682D01*
D02*
G37*
G36*
X01152510Y00716510D02*
X01153272D01*
Y00712658D01*
X01121298D01*
Y00715240D01*
X01122060D01*
Y00722570D01*
X01152510D01*
Y00716510D01*
D02*
G37*
G36*
X01204942Y00712453D02*
Y00705433D01*
X01204249Y00705146D01*
X01198538Y00710857D01*
X01197529Y00711531D01*
X01196340Y00711768D01*
X01170828D01*
Y00716510D01*
X01171590D01*
Y00722570D01*
X01194825D01*
X01204942Y00712453D01*
D02*
G37*
G36*
X01330392Y00688323D02*
Y00648738D01*
X01324722D01*
Y00643568D01*
X01314830D01*
X01313641Y00643331D01*
X01312632Y00642657D01*
X01298593Y00628618D01*
X01290797D01*
Y00628812D01*
X01275303D01*
Y00628618D01*
X01261780D01*
X01260591Y00628381D01*
X01259583Y00627707D01*
X01195061Y00563186D01*
X01194368Y00563473D01*
Y00615510D01*
Y00626110D01*
X01194131Y00627299D01*
X01193457Y00628307D01*
X01184752Y00637013D01*
X01185063Y00637763D01*
X01203986D01*
Y00637001D01*
X01206780D01*
Y00645510D01*
X01209320D01*
Y00637001D01*
X01212114D01*
Y00637763D01*
X01266352D01*
Y00653257D01*
X01266158D01*
Y00691203D01*
X01270112D01*
Y00686032D01*
X01287668D01*
Y00691265D01*
X01327450D01*
X01330392Y00688323D01*
D02*
G37*
G36*
X01259942Y00668131D02*
Y00653257D01*
X01246158D01*
Y00666794D01*
X01256338D01*
X01257527Y00667031D01*
X01258536Y00667704D01*
X01259249Y00668418D01*
X01259942Y00668131D01*
D02*
G37*
G36*
X01199942Y00700663D02*
Y00653257D01*
X01191158D01*
Y00678832D01*
X01192284Y00679696D01*
X01193371Y00681112D01*
X01194053Y00682761D01*
X01194286Y00684530D01*
X01194053Y00686299D01*
X01193371Y00687948D01*
X01192284Y00689364D01*
X01190868Y00690451D01*
X01189219Y00691133D01*
X01187450Y00691367D01*
X01185681Y00691133D01*
X01184032Y00690451D01*
X01182616Y00689364D01*
X01181529Y00687948D01*
X01180846Y00686299D01*
X01180613Y00684530D01*
X01180846Y00682761D01*
X01181529Y00681112D01*
X01182616Y00679696D01*
X01184032Y00678609D01*
X01184942Y00678232D01*
Y00653257D01*
X01184748D01*
Y00638078D01*
X01183998Y00637767D01*
X01165158Y00656607D01*
Y00701272D01*
X01170828D01*
Y00705552D01*
X01195053D01*
X01199942Y00700663D01*
D02*
G37*
G36*
X01324722Y00633500D02*
X01323960D01*
Y00627568D01*
X01317880D01*
X01316691Y00627331D01*
X01315683Y00626657D01*
X01312643Y00623618D01*
X01303363D01*
X01303076Y00624311D01*
X01316117Y00637352D01*
X01324722D01*
Y00633500D01*
D02*
G37*
G36*
X00550751Y00572470D02*
X00552462Y00570242D01*
X00554069Y00569008D01*
X00553815Y00568258D01*
X00519530D01*
X00518588Y00570530D01*
X00516879Y00572758D01*
X00515271Y00573992D01*
X00515525Y00574742D01*
X00549810D01*
X00550751Y00572470D01*
D02*
G37*
G36*
X00554069Y00561292D02*
X00552462Y00560059D01*
X00550751Y00557830D01*
X00549808Y00555552D01*
X00515518D01*
X00515263Y00556302D01*
X00516879Y00557542D01*
X00518588Y00559770D01*
X00519530Y00562042D01*
X00553815D01*
X00554069Y00561292D01*
D02*
G37*
G36*
X01306262Y00586723D02*
Y00551006D01*
X01305512Y00550778D01*
X01305217Y00551220D01*
X01303730Y00552707D01*
X01302721Y00553381D01*
X01301532Y00553618D01*
X01290797D01*
Y00562208D01*
Y00572208D01*
Y00582208D01*
Y00592402D01*
X01300583D01*
X01306262Y00586723D01*
D02*
G37*
G36*
X01188152Y00556277D02*
X01150745Y00518870D01*
X01150071Y00517861D01*
X01149834Y00516672D01*
Y00500948D01*
X01135268D01*
Y00507768D01*
X01129598D01*
Y00528303D01*
X01148697Y00547402D01*
X01160303D01*
Y00547208D01*
X01175797D01*
Y00552208D01*
Y00557208D01*
Y00562208D01*
Y00567208D01*
Y00572208D01*
Y00577208D01*
Y00582208D01*
Y00587208D01*
Y00592208D01*
Y00597208D01*
Y00602208D01*
Y00607208D01*
Y00612208D01*
Y00612402D01*
X01188152D01*
Y00556277D01*
D02*
G37*
G36*
X01123382Y00528647D02*
Y00507768D01*
X01117712D01*
Y00492530D01*
X01116950D01*
Y00485708D01*
X01108090D01*
Y00491640D01*
X01107328D01*
Y00506878D01*
X01101658D01*
Y00518862D01*
X01111250D01*
X01112439Y00519099D01*
X01113447Y00519772D01*
X01122632Y00528957D01*
X01123382Y00528647D01*
D02*
G37*
G36*
X01259942Y00502727D02*
Y00492528D01*
X01254872D01*
Y00477290D01*
X01254110D01*
Y00472373D01*
X01249060D01*
Y00477290D01*
X01248298D01*
Y00492528D01*
X01242628D01*
Y00498542D01*
X01253490D01*
X01254679Y00498779D01*
X01255687Y00499453D01*
X01259249Y00503014D01*
X01259942Y00502727D01*
D02*
G37*
G36*
X01309735Y00366428D02*
X01282800D01*
X01281611Y00366191D01*
X01281207Y00365921D01*
X01280603Y00365518D01*
X01275063Y00359978D01*
X01264688D01*
Y00365648D01*
X01249450D01*
Y00366410D01*
X01243518D01*
Y00371460D01*
X01249450D01*
Y00372222D01*
X01264688D01*
Y00377384D01*
X01309735D01*
Y00366428D01*
D02*
G37*
G36*
X00889406Y00648716D02*
X00891632D01*
Y00620268D01*
X00891869Y00619079D01*
X00892542Y00618070D01*
X00898362Y00612251D01*
Y00608218D01*
X00892430D01*
Y00607456D01*
X00888348D01*
Y00649478D01*
X00889406D01*
Y00648716D01*
D02*
G37*
G36*
X00896366Y00428498D02*
X00898592D01*
Y00412750D01*
X00898829Y00411561D01*
X00899502Y00410552D01*
X00905322Y00404733D01*
Y00393080D01*
X00899390D01*
Y00392318D01*
X00895423D01*
Y00429260D01*
X00896366D01*
Y00428498D01*
D02*
G37*
D14*
X01112520Y00725678D02*
X01113790D01*
X01162050D02*
X01196112D01*
X01113790D02*
X01162050D01*
X00468630Y00678180D02*
X00577850Y00787400D01*
X01198880D02*
X01223050Y00763230D01*
X00577850Y00787400D02*
X01198880D01*
X00568960Y00795020D02*
X01205230D01*
X01228050Y00645510D02*
Y00772200D01*
X01205230Y00795020D02*
X01228050Y00772200D01*
X00983822Y00755222D02*
X01158240D01*
X00982980Y00754380D02*
X00983822Y00755222D01*
X01113790Y00726948D02*
Y00742950D01*
X00546100Y00783590D02*
X00565150Y00802640D01*
X00724421Y00805180D02*
X00726440D01*
X00721881Y00802640D02*
X00724421Y00805180D01*
X00565150Y00802640D02*
X00721881D01*
X00491490Y00642838D02*
Y00673100D01*
X00582930Y00764540D02*
X01200150D01*
X00491490Y00673100D02*
X00582930Y00764540D01*
X00478790Y00617438D02*
Y00674370D01*
X00579120Y00774700D02*
X01201420D01*
X00478790Y00674370D02*
X00579120Y00774700D01*
X00468630Y00579338D02*
Y00678180D01*
X00455930Y00553932D02*
Y00681990D01*
X00568960Y00795020D01*
X00491490Y00642838D02*
X00492978Y00641350D01*
X00509270D01*
X00480278Y00615950D02*
X00509270D01*
X00478790Y00617438D02*
X00480278Y00615950D01*
X00468630Y00579338D02*
X00470118Y00577850D01*
X00560070D01*
X00455930Y00553932D02*
X00457418Y00552444D01*
X00560064D01*
X01323340Y00608330D02*
X01363980D01*
X01316160Y00615510D02*
X01323340Y00608330D01*
X01064513Y00583701D02*
X01064759D01*
X01088042Y00560418D01*
X01167958D01*
X00901470Y00598678D02*
X00937400D01*
X00830580Y00425450D02*
Y00443200D01*
X00816610Y00598170D02*
Y00661670D01*
Y00681960D01*
X00709930Y00565150D02*
X00720090Y00554990D01*
X00509270Y00565150D02*
X00709930D01*
X00621030Y00579120D02*
X00621168D01*
X00842772Y00583438D02*
X00868680Y00557530D01*
X00718312Y00583438D02*
X00842772D01*
X00694690Y00607060D02*
X00718312Y00583438D01*
X01303020Y00525998D02*
X01304508Y00524510D01*
X01303020Y00525998D02*
Y00549022D01*
X01304508Y00524510D02*
X01450600D01*
X00492760Y00783590D02*
X00546100D01*
X01201420Y00774700D02*
X01218050Y00758070D01*
X01200150Y00764540D02*
X01213050Y00751640D01*
X01085850Y00586740D02*
X01107080Y00565510D01*
X01122480Y00575510D02*
X01168050D01*
X01109980Y00588010D02*
X01122480Y00575510D01*
X01145420Y00580510D02*
X01168050D01*
X01137920Y00588010D02*
X01145420Y00580510D01*
X01167958Y00560418D02*
X01168050Y00560510D01*
X01107080Y00565510D02*
X01168050D01*
X01008740Y00610510D02*
X01168050D01*
X00868680Y00538480D02*
Y00557530D01*
X00560070Y00628650D02*
X00576580D01*
X00598170Y00607060D01*
X00694690D01*
X00560070Y00679450D02*
Y00695960D01*
X00576580Y00712470D02*
X00730250D01*
X00560070Y00695960D02*
X00576580Y00712470D01*
X00560070Y00482600D02*
Y00501650D01*
X00617220Y00425450D02*
X00830580D01*
X00560070Y00482600D02*
X00617220Y00425450D01*
X00830580D02*
X00830580Y00425450D01*
X00830720Y00383540D02*
Y00425310D01*
X00830580Y00425450D02*
X00830720Y00425310D01*
X00815340Y00662940D02*
X00816610Y00661670D01*
X00779780Y00662940D02*
X00815340D01*
X00730250Y00712470D02*
X00779780Y00662940D01*
X00832980Y00598678D02*
X00885470D01*
X00906780Y00514350D02*
X00972602D01*
X00972820Y00629920D02*
X00974090Y00628650D01*
Y00515838D02*
Y00628650D01*
X00972602Y00514350D02*
X00974090Y00515838D01*
X00891540Y00499110D02*
X00906780Y00514350D01*
X01174750Y00467360D02*
Y00468630D01*
X01228050Y00521930D01*
X01174750Y00485140D02*
X01178076D01*
X01212622Y00519686D01*
X01228050Y00521930D02*
Y00530510D01*
X01197610Y00451068D02*
Y00472440D01*
X01176020Y00449580D02*
X01196122D01*
X01197610Y00451068D01*
Y00472440D02*
X01233050Y00507880D01*
Y00530510D01*
X01241008Y00501650D02*
X01253490D01*
X01258050Y00506210D02*
Y00530510D01*
X01253490Y00501650D02*
X01258050Y00506210D01*
X01239520Y00484250D02*
Y00500162D01*
X01241008Y00501650D01*
X01263050Y00487010D02*
X01264920Y00485140D01*
X01263050Y00487010D02*
Y00530510D01*
X01264920Y00483870D02*
X01285022D01*
X01286510Y00414020D02*
Y00482382D01*
X01285022Y00483870D02*
X01286510Y00482382D01*
X01240535Y00469265D02*
X01263340D01*
X01239520Y00468250D02*
X01240535Y00469265D01*
X01257893Y00380492D02*
X01336855D01*
X01156970Y00422910D02*
X01254922D01*
X01212622Y00519686D02*
Y00530082D01*
X01207796Y00520967D02*
Y00530256D01*
X01192289Y00505460D02*
X01207796Y00520967D01*
X01174750Y00505460D02*
X01192289D01*
X00673995Y00353436D02*
Y00355235D01*
X00699770Y00327660D02*
X01206500D01*
X00673995Y00353436D02*
X00699770Y00327660D01*
X01336855Y00380492D02*
X01338360Y00378988D01*
X01518702D01*
X01520190Y00380476D02*
Y00510322D01*
X01518702Y00378988D02*
X01520190Y00380476D01*
X01309370Y00548640D02*
X01320800Y00537210D01*
X01309370Y00548640D02*
Y00588010D01*
X01156970Y00422910D02*
X01158240Y00421640D01*
X01153160Y00426720D02*
X01156970Y00422910D01*
X01153160Y00426720D02*
Y00497622D01*
X01158240Y00402590D02*
Y00421640D01*
X01256410Y00402590D02*
Y00421422D01*
X01254922Y00422910D02*
X01256410Y00421422D01*
X01212622Y00530082D02*
X01213050Y00530510D01*
X01304490Y00600510D02*
X01320800Y00584200D01*
Y00554990D02*
Y00584200D01*
X01301870Y00595510D02*
X01309370Y00588010D01*
X01283050Y00595510D02*
X01301870D01*
X01283050Y00550510D02*
X01301532D01*
X01303020Y00549022D01*
X01278890Y00694372D02*
X01328737D01*
X01278828Y00694310D02*
X01278890Y00694372D01*
X01256030Y00381380D02*
X01256410Y00381760D01*
X01162050Y00708660D02*
X01196340D01*
X00874590Y00703580D02*
X00885240Y00692930D01*
X00861060Y00703580D02*
X00874590D01*
X00885240Y00681736D02*
Y00692930D01*
X00891870Y00461848D02*
X00892200Y00461518D01*
X00891870Y00461848D02*
Y00498780D01*
X00891540Y00499110D02*
X00891870Y00498780D01*
X01112520Y00725678D02*
X01113790Y00726948D01*
X01112520Y00724280D02*
Y00725678D01*
X01113790Y00709550D02*
X01162050D01*
X01112520Y00708280D02*
X01113790Y00709550D01*
X01162050Y00655320D02*
Y00708660D01*
Y00655320D02*
X01191260Y00626110D01*
X01187450Y00684530D02*
X01188050Y00683930D01*
X01196112Y00725678D02*
X01208050Y00713740D01*
X01196340Y00708660D02*
X01203050Y00701950D01*
X01003300Y00717550D02*
X01051560D01*
X01143600Y00625510D01*
X01168050D01*
X01188050Y00645510D02*
Y00683930D01*
X01213050Y00645510D02*
Y00751640D01*
X01223050Y00645510D02*
Y00763230D01*
X01218050Y00645510D02*
Y00758070D01*
X01474470Y00572770D02*
Y00623570D01*
X01168050Y00575510D02*
X01168250Y00575310D01*
X01168050Y00565510D02*
X01168478Y00565082D01*
X01233050Y00683038D02*
X01239986Y00689974D01*
X01311000Y00610510D02*
X01325880Y00595630D01*
X01283050Y00600510D02*
X01304490D01*
X01283050Y00610510D02*
X01311000D01*
X01233050Y00645510D02*
Y00683038D01*
X01283050Y00615510D02*
X01316160D01*
X01207796Y00530256D02*
X01208050Y00530510D01*
X01325880Y00595630D02*
X01348740D01*
X01394460Y00581660D02*
X01405890D01*
X01423578Y00563972D02*
X01449238D01*
X01405890Y00581660D02*
X01423578Y00563972D01*
X01449238D02*
X01450600Y00562610D01*
X01394460Y00581660D02*
Y00603492D01*
X01397218Y00606250D01*
X01412840D01*
X01417320Y00593230D02*
X01418450Y00594360D01*
X01452880D02*
X01474470Y00572770D01*
X01418450Y00594360D02*
X01452880D01*
X01412840Y00606250D02*
X01417320Y00610730D01*
X01244538Y00669902D02*
X01256338D01*
X01243050Y00645510D02*
Y00668414D01*
X01244538Y00669902D01*
X01256338D02*
X01257826Y00671390D01*
Y00732468D01*
X01238050Y00645510D02*
Y00672900D01*
X01240790Y00675640D02*
X01250732D01*
X01238050Y00672900D02*
X01240790Y00675640D01*
X01252220Y00677128D02*
Y00740521D01*
X01250732Y00675640D02*
X01252220Y00677128D01*
Y00740521D02*
X01253708Y00742009D01*
X01371382D01*
X01372870Y00743496D02*
Y00787400D01*
X01257826Y00732468D02*
X01259314Y00733956D01*
X01263050Y00645510D02*
Y00692822D01*
X01264538Y00694310D01*
X01259314Y00733956D02*
X01418486D01*
X01264538Y00694310D02*
X01278828D01*
X01466850Y00787400D02*
Y00832610D01*
X01328737Y00694372D02*
X01333500Y00689610D01*
X01329690Y00569178D02*
Y00584200D01*
X01331178Y00567690D02*
X01347768D01*
X01329690Y00569178D02*
X01331178Y00567690D01*
X01283050Y00605510D02*
X01308380D01*
X01329690Y00584200D01*
X00892200Y00383540D02*
X00892315Y00383655D01*
X00848220Y00383540D02*
X00892200D01*
X00966330D02*
Y00415290D01*
Y00420370D01*
X00911200Y00416778D02*
Y00437642D01*
X00912688Y00415290D02*
X00966330D01*
X00911200Y00416778D02*
X00912688Y00415290D01*
X00966470Y00420370D02*
Y00438150D01*
X00560064Y00552444D02*
X00560070Y00552450D01*
X00557530Y00524510D02*
X00560070Y00527050D01*
X01208050Y00645510D02*
Y00713740D01*
X01203050Y00645510D02*
Y00701950D01*
X01467230Y00734440D02*
Y00787400D01*
X01466850Y00734060D02*
X01467230Y00734440D01*
X01418590Y00734060D02*
X01466850D01*
X01371382Y00742009D02*
X01372870Y00743496D01*
X01372360Y00833120D02*
X01372490Y00832990D01*
Y00787400D02*
Y00832990D01*
X01418486Y00733956D02*
X01418590Y00734060D01*
X01498600Y00511810D02*
X01518702D01*
X01520190Y00510322D01*
X00901470Y00598678D02*
X00901700Y00598448D01*
Y00412750D02*
Y00437642D01*
X00894740Y00620268D02*
Y00657860D01*
X00985520Y00506730D02*
Y00584200D01*
X00966470Y00487680D02*
X00985520Y00506730D01*
X01006830Y00605510D02*
X01168050D01*
X00985520Y00584200D02*
X01006830Y00605510D01*
X00986028Y00681228D02*
X00988060Y00679196D01*
Y00631190D02*
Y00679196D01*
X00955040Y00681228D02*
X00986028D01*
X00905728Y00704088D02*
X00953552D01*
X00955040Y00680580D02*
Y00702600D01*
X00953552Y00704088D02*
X00955040Y00702600D01*
X00954900Y00598170D02*
Y00627888D01*
X00955040D02*
Y00663080D01*
X00955040Y00663080D01*
X00906170Y00627888D02*
X00955040D01*
X00966470Y00455650D02*
Y00487680D01*
X00915670Y00491490D02*
X00962660D01*
X00966470Y00487680D01*
X00911200Y00461518D02*
Y00487020D01*
X00915670Y00491490D01*
X00908430Y00383540D02*
Y00406020D01*
X00901700Y00412750D02*
X00908430Y00406020D01*
X00892200Y00437642D02*
X00892315Y00437527D01*
Y00383655D02*
Y00437527D01*
X00910970Y00383540D02*
X00948830D01*
X00988060Y00631190D02*
X01008740Y00610510D01*
X00901470Y00598678D02*
Y00613538D01*
X00894740Y00620268D02*
X00901470Y00613538D01*
X00885240Y00598908D02*
Y00657860D01*
Y00598908D02*
X00885470Y00598678D01*
X00904240Y00629818D02*
Y00657860D01*
Y00629818D02*
X00906170Y00627888D01*
X00904240Y00681736D02*
Y00702600D01*
X00905728Y00704088D01*
X01253050Y00530510D02*
X01253112Y00530572D01*
X01255883Y00541020D02*
X01282482D01*
X01253112Y00530572D02*
Y00538249D01*
X01255883Y00541020D01*
X01287780Y00511810D02*
X01450600D01*
X01283970Y00515620D02*
X01287780Y00511810D01*
X01474470Y00513298D02*
Y00572770D01*
X01475958Y00511810D02*
X01498600D01*
X01474470Y00513298D02*
X01475958Y00511810D01*
X01414780Y00339090D02*
X01483142D01*
X01400810Y00325120D02*
X01414780Y00339090D01*
X01484630Y00300890D02*
Y00337602D01*
X01483142Y00339090D02*
X01484630Y00337602D01*
X01334077Y00325120D02*
X01400810D01*
X01283970Y00515620D02*
Y00539532D01*
X01282482Y00541020D02*
X01283970Y00539532D01*
X01493735Y00524855D02*
X01494660Y00525780D01*
X01152942Y00497840D02*
X01153160Y00497622D01*
X01152942Y00516672D02*
X01191260Y00554990D01*
X01128140Y00497840D02*
X01152942D01*
Y00516672D01*
X01191260Y00615510D02*
Y00626110D01*
Y00554990D02*
Y00615510D01*
X01168050D02*
X01191260D01*
Y00554990D02*
X01261780Y00625510D01*
X01333500Y00640460D02*
Y00689610D01*
X01261780Y00625510D02*
X01283050D01*
X01126490Y00499490D02*
X01128140Y00497840D01*
X01098550Y00482600D02*
X01125600D01*
X01126490Y00483490D01*
X01100038Y00521970D02*
X01111250D01*
X01098550Y00498600D02*
Y00520482D01*
X01100038Y00521970D01*
X01111250D02*
X01144790Y00555510D01*
X01126490Y00499490D02*
Y00529590D01*
X01147410Y00550510D01*
X01272540Y00696470D02*
X01273210Y00695800D01*
X01314053Y00372555D02*
Y00378988D01*
X01312565Y00380476D02*
X01314053Y00378988D01*
X01240410Y00356870D02*
Y00381000D01*
X01256410Y00356870D02*
X01276350D01*
X01256410Y00381760D02*
Y00402590D01*
X01275080D01*
X01286510Y00414020D01*
X01240410Y00381000D02*
Y00402590D01*
X01317880Y00624460D02*
X01333500D01*
X01313930Y00620510D02*
X01317880Y00624460D01*
X01283050Y00620510D02*
X01313930D01*
X01314830Y00640460D02*
X01333500D01*
X01299880Y00625510D02*
X01314830Y00640460D01*
X01283050Y00625510D02*
X01299880D01*
X01256030Y00381380D02*
X01256410Y00381000D01*
X01333218Y00325979D02*
X01334077Y00325120D01*
X01333218Y00325979D02*
Y00345085D01*
X01147410Y00550510D02*
X01168050D01*
X01144790Y00555510D02*
X01168050D01*
X01314053Y00354911D02*
X01318028Y00358886D01*
X01333218Y00345415D02*
Y00354466D01*
X01318028Y00358886D02*
X01328798D01*
X01333218Y00354466D01*
X01333053Y00345250D02*
X01333218Y00345415D01*
X01314053Y00345250D02*
Y00354911D01*
X01333037Y00372538D02*
X01333053Y00372555D01*
X01325958Y00372538D02*
X01333037D01*
X01282800Y00363320D02*
X01316740D01*
X01333053Y00345250D02*
X01333218Y00345085D01*
X01323553Y00345250D02*
X01323718Y00345085D01*
X01316740Y00363320D02*
X01325958Y00372538D01*
X01276350Y00356870D02*
X01282800Y00363320D01*
X00825500Y00830580D02*
X00826770Y00831850D01*
X01466850Y00832610D02*
X01467360Y00833120D01*
D15*
X00830580Y00471200D02*
D03*
Y00443200D02*
D03*
X00816610Y00681960D02*
D03*
Y00709960D02*
D03*
D16*
X00885240Y00681736D02*
D03*
X00904240D02*
D03*
Y00657860D02*
D03*
X00894740D02*
D03*
X00885240D02*
D03*
X00892200Y00437642D02*
D03*
X00901700D02*
D03*
X00911200D02*
D03*
Y00461518D02*
D03*
X00892200D02*
D03*
D17*
X01112520Y00708280D02*
D03*
Y00724280D02*
D03*
X01162050Y00709550D02*
D03*
Y00725550D02*
D03*
X01333500Y00624460D02*
D03*
Y00640460D02*
D03*
X01278890Y00694310D02*
D03*
Y00710310D02*
D03*
X01098550Y00482600D02*
D03*
Y00498600D02*
D03*
X01126490Y00483490D02*
D03*
Y00499490D02*
D03*
X01263650Y00468250D02*
D03*
Y00484250D02*
D03*
X01239520D02*
D03*
Y00468250D02*
D03*
D18*
X01283050Y00625510D02*
D03*
Y00620510D02*
D03*
Y00615510D02*
D03*
Y00610510D02*
D03*
Y00605510D02*
D03*
Y00600510D02*
D03*
Y00595510D02*
D03*
Y00590510D02*
D03*
Y00585510D02*
D03*
Y00580510D02*
D03*
Y00575510D02*
D03*
Y00570510D02*
D03*
Y00565510D02*
D03*
Y00560510D02*
D03*
Y00555510D02*
D03*
Y00550510D02*
D03*
X01168050D02*
D03*
Y00555510D02*
D03*
Y00560510D02*
D03*
Y00565510D02*
D03*
Y00570510D02*
D03*
Y00575510D02*
D03*
Y00580510D02*
D03*
Y00585510D02*
D03*
Y00590510D02*
D03*
Y00595510D02*
D03*
Y00600510D02*
D03*
Y00605510D02*
D03*
Y00610510D02*
D03*
Y00615510D02*
D03*
Y00620510D02*
D03*
Y00625510D02*
D03*
D19*
X01263050Y00530510D02*
D03*
X01258050D02*
D03*
X01253050D02*
D03*
X01248050D02*
D03*
X01243050D02*
D03*
X01238050D02*
D03*
X01233050D02*
D03*
X01228050D02*
D03*
X01223050D02*
D03*
X01218050D02*
D03*
X01213050D02*
D03*
X01208050D02*
D03*
X01203050D02*
D03*
X01198050D02*
D03*
X01193050D02*
D03*
X01188050D02*
D03*
Y00645510D02*
D03*
X01193050D02*
D03*
X01198050D02*
D03*
X01203050D02*
D03*
X01208050D02*
D03*
X01213050D02*
D03*
X01218050D02*
D03*
X01223050D02*
D03*
X01228050D02*
D03*
X01233050D02*
D03*
X01238050D02*
D03*
X01243050D02*
D03*
X01248050D02*
D03*
X01253050D02*
D03*
X01258050D02*
D03*
X01263050D02*
D03*
D20*
X01372360Y00833120D02*
D03*
X01467360D02*
D03*
D21*
X01372490Y00787400D02*
D03*
X01388490D02*
D03*
X00892430Y00383540D02*
D03*
X00908430D02*
D03*
X00901470Y00598678D02*
D03*
X00885470D02*
D03*
X01451230Y00787400D02*
D03*
X01467230D02*
D03*
X01240410Y00402590D02*
D03*
X01256410D02*
D03*
X01240410Y00381000D02*
D03*
X01256410D02*
D03*
X01240410Y00356870D02*
D03*
X01256410D02*
D03*
D22*
X00815480Y00598170D02*
D03*
X00832980D02*
D03*
X00937400D02*
D03*
X00954900D02*
D03*
X00830720Y00383540D02*
D03*
X00848220D02*
D03*
X00948830D02*
D03*
X00966330D02*
D03*
X01346340Y00568960D02*
D03*
X01363840D02*
D03*
D23*
X00955040Y00680580D02*
D03*
Y00663080D02*
D03*
X00966470Y00455650D02*
D03*
Y00438150D02*
D03*
X01417320Y00610730D02*
D03*
Y00593230D02*
D03*
D24*
X01450600Y00511810D02*
D03*
Y00524510D02*
D03*
Y00537210D02*
D03*
Y00549910D02*
D03*
Y00562610D02*
D03*
X01498600Y00511810D02*
D03*
Y00524510D02*
D03*
Y00537210D02*
D03*
Y00549910D02*
D03*
Y00562610D02*
D03*
D25*
X01314053Y00345250D02*
D03*
X01323553D02*
D03*
X01333053D02*
D03*
Y00372555D02*
D03*
X01314053D02*
D03*
D35*
X00560070Y00501650D02*
D03*
D36*
X00509270Y00514350D02*
D03*
X00560070Y00527050D02*
D03*
X00509270Y00539750D02*
D03*
X00560070Y00552450D02*
D03*
X00509270Y00565150D02*
D03*
X00560070Y00577850D02*
D03*
X00509270Y00590550D02*
D03*
X00560070Y00603250D02*
D03*
X00509270Y00615950D02*
D03*
X00560070Y00628650D02*
D03*
X00509270Y00641350D02*
D03*
X00560070Y00654050D02*
D03*
X00509270Y00666750D02*
D03*
X00560070Y00679450D02*
D03*
D41*
X01069340Y00831850D02*
D03*
X01018540D02*
D03*
X01043940D02*
D03*
X01094740D02*
D03*
X00925830Y00830580D02*
D03*
X00951230D02*
D03*
X00826770Y00831850D02*
D03*
X00852170D02*
D03*
X00492760Y00825500D02*
D03*
X00518160D02*
D03*
X00568960D02*
D03*
X00467360D02*
D03*
X00543560D02*
D03*
X00506730Y00304800D02*
D03*
X00455930D02*
D03*
X00481330D02*
D03*
X00532130D02*
D03*
X00557530D02*
D03*
D42*
X01120140Y00831850D02*
D03*
X00976630Y00830580D02*
D03*
X00877570Y00831850D02*
D03*
X00594360Y00825500D02*
D03*
X00582930Y00304800D02*
D03*
D43*
X00440690Y00412750D02*
D03*
D44*
Y00387350D02*
D03*
D45*
X01484630Y00300890D02*
D03*
D46*
X01459230D02*
D03*
D47*
X01158240Y00755222D02*
D03*
X01113790Y00742950D02*
D03*
X00982980Y00754380D02*
D03*
X01363980Y00608330D02*
D03*
X01064513Y00583701D02*
D03*
X00621030Y00579120D02*
D03*
X00720090Y00554990D02*
D03*
X00726440Y00805180D02*
D03*
X01085850Y00586740D02*
D03*
X01109980Y00588010D02*
D03*
X01137920D02*
D03*
X00868680Y00538480D02*
D03*
X00891540Y00499110D02*
D03*
X00972820Y00629920D02*
D03*
X01174750Y00467360D02*
D03*
Y00485140D02*
D03*
X01176020Y00449580D02*
D03*
X01174750Y00505460D02*
D03*
X00673995Y00355235D02*
D03*
X01206500Y00327660D02*
D03*
X01320800Y00537210D02*
D03*
X01158240Y00402590D02*
D03*
X01320800Y00554990D02*
D03*
X00492760Y00783590D02*
D03*
X00861060Y00703580D02*
D03*
X01187450Y00684530D02*
D03*
X01003300Y00717550D02*
D03*
X01474470Y00623570D02*
D03*
X01239986Y00689974D02*
D03*
X01348740Y00595630D02*
D03*
X01394460Y00581660D02*
D03*
M02*
