G04*
G04 #@! TF.GenerationSoftware,Altium Limited,Altium Designer,20.2.5 (213)*
G04*
G04 Layer_Color=8421504*
%FSAX44Y44*%
%MOMM*%
G71*
G04*
G04 #@! TF.SameCoordinates,DEE1CB44-B07E-4D6A-B40A-D2815B2109DB*
G04*
G04*
G04 #@! TF.FilePolarity,Positive*
G04*
G01*
G75*
%ADD15R,1.6500X1.2000*%
%ADD16R,0.5588X1.3208*%
%ADD17R,1.4000X1.3000*%
%ADD18R,1.1938X0.3048*%
%ADD19R,0.3048X1.1938*%
%ADD20R,5.6000X2.1000*%
%ADD21R,1.3000X1.4000*%
%ADD22R,1.1500X1.3500*%
%ADD23R,1.3500X1.1500*%
%ADD24R,2.4000X0.7600*%
%ADD25R,0.5080X0.9779*%
D15*
X00830580Y00471200D02*
D03*
Y00443200D02*
D03*
X00816610Y00681960D02*
D03*
Y00709960D02*
D03*
D16*
X00885240Y00681736D02*
D03*
X00904240D02*
D03*
Y00657860D02*
D03*
X00894740D02*
D03*
X00885240D02*
D03*
X00892200Y00437642D02*
D03*
X00901700D02*
D03*
X00911200D02*
D03*
Y00461518D02*
D03*
X00892200D02*
D03*
D17*
X01112520Y00708280D02*
D03*
Y00724280D02*
D03*
X01162050Y00709550D02*
D03*
Y00725550D02*
D03*
X01333500Y00624460D02*
D03*
Y00640460D02*
D03*
X01278890Y00694310D02*
D03*
Y00710310D02*
D03*
X01098550Y00482600D02*
D03*
Y00498600D02*
D03*
X01126490Y00483490D02*
D03*
Y00499490D02*
D03*
X01263650Y00468250D02*
D03*
Y00484250D02*
D03*
X01239520D02*
D03*
Y00468250D02*
D03*
D18*
X01283050Y00625510D02*
D03*
Y00620510D02*
D03*
Y00615510D02*
D03*
Y00610510D02*
D03*
Y00605510D02*
D03*
Y00600510D02*
D03*
Y00595510D02*
D03*
Y00590510D02*
D03*
Y00585510D02*
D03*
Y00580510D02*
D03*
Y00575510D02*
D03*
Y00570510D02*
D03*
Y00565510D02*
D03*
Y00560510D02*
D03*
Y00555510D02*
D03*
Y00550510D02*
D03*
X01168050D02*
D03*
Y00555510D02*
D03*
Y00560510D02*
D03*
Y00565510D02*
D03*
Y00570510D02*
D03*
Y00575510D02*
D03*
Y00580510D02*
D03*
Y00585510D02*
D03*
Y00590510D02*
D03*
Y00595510D02*
D03*
Y00600510D02*
D03*
Y00605510D02*
D03*
Y00610510D02*
D03*
Y00615510D02*
D03*
Y00620510D02*
D03*
Y00625510D02*
D03*
D19*
X01263050Y00530510D02*
D03*
X01258050D02*
D03*
X01253050D02*
D03*
X01248050D02*
D03*
X01243050D02*
D03*
X01238050D02*
D03*
X01233050D02*
D03*
X01228050D02*
D03*
X01223050D02*
D03*
X01218050D02*
D03*
X01213050D02*
D03*
X01208050D02*
D03*
X01203050D02*
D03*
X01198050D02*
D03*
X01193050D02*
D03*
X01188050D02*
D03*
Y00645510D02*
D03*
X01193050D02*
D03*
X01198050D02*
D03*
X01203050D02*
D03*
X01208050D02*
D03*
X01213050D02*
D03*
X01218050D02*
D03*
X01223050D02*
D03*
X01228050D02*
D03*
X01233050D02*
D03*
X01238050D02*
D03*
X01243050D02*
D03*
X01248050D02*
D03*
X01253050D02*
D03*
X01258050D02*
D03*
X01263050D02*
D03*
D20*
X01372360Y00833120D02*
D03*
X01467360D02*
D03*
D21*
X01372490Y00787400D02*
D03*
X01388490D02*
D03*
X00892430Y00383540D02*
D03*
X00908430D02*
D03*
X00901470Y00598678D02*
D03*
X00885470D02*
D03*
X01451230Y00787400D02*
D03*
X01467230D02*
D03*
X01240410Y00402590D02*
D03*
X01256410D02*
D03*
X01240410Y00381000D02*
D03*
X01256410D02*
D03*
X01240410Y00356870D02*
D03*
X01256410D02*
D03*
D22*
X00815480Y00598170D02*
D03*
X00832980D02*
D03*
X00937400D02*
D03*
X00954900D02*
D03*
X00830720Y00383540D02*
D03*
X00848220D02*
D03*
X00948830D02*
D03*
X00966330D02*
D03*
X01346340Y00568960D02*
D03*
X01363840D02*
D03*
D23*
X00955040Y00680580D02*
D03*
Y00663080D02*
D03*
X00966470Y00455650D02*
D03*
Y00438150D02*
D03*
X01417320Y00610730D02*
D03*
Y00593230D02*
D03*
D24*
X01450600Y00511810D02*
D03*
Y00524510D02*
D03*
Y00537210D02*
D03*
Y00549910D02*
D03*
Y00562610D02*
D03*
X01498600Y00511810D02*
D03*
Y00524510D02*
D03*
Y00537210D02*
D03*
Y00549910D02*
D03*
Y00562610D02*
D03*
D25*
X01314053Y00345250D02*
D03*
X01323553D02*
D03*
X01333053D02*
D03*
Y00372555D02*
D03*
X01314053D02*
D03*
M02*
