G04*
G04 #@! TF.GenerationSoftware,Altium Limited,Altium Designer,20.2.5 (213)*
G04*
G04 Layer_Color=128*
%FSAX44Y44*%
%MOMM*%
G71*
G04*
G04 #@! TF.SameCoordinates,DEE1CB44-B07E-4D6A-B40A-D2815B2109DB*
G04*
G04*
G04 #@! TF.FilePolarity,Positive*
G04*
G01*
G75*
%ADD21R,1.3000X1.4000*%
%ADD22R,1.1500X1.3500*%
%ADD51R,0.9500X0.8500*%
%ADD52R,0.8500X0.9500*%
%ADD53R,0.9000X1.0000*%
%ADD54R,3.4000X1.8500*%
%ADD55R,1.3000X2.7000*%
%ADD56R,1.0000X0.9000*%
%ADD57R,2.7000X1.3000*%
%ADD58R,2.5000X1.7000*%
%ADD59R,1.7000X2.5000*%
%ADD70O,0.3968X0.0368*%
%ADD71O,0.0368X0.3968*%
%ADD72R,0.0254X0.0254*%
G36*
X01374409Y00393431D02*
X01361129D01*
Y00402601D01*
X01374409D01*
Y00393431D01*
D02*
G37*
G36*
X01359129Y00388530D02*
X01356159D01*
Y00396330D01*
X01359129D01*
Y00388530D01*
D02*
G37*
G36*
X01374409Y00382261D02*
X01361129D01*
Y00391431D01*
X01374409D01*
Y00382261D01*
D02*
G37*
G36*
X01389689Y00393431D02*
X01376409D01*
Y00402601D01*
X01389689D01*
Y00393431D01*
D02*
G37*
G36*
X01394659Y00388530D02*
X01391689D01*
Y00396330D01*
X01394659D01*
Y00388530D01*
D02*
G37*
G36*
X01389689Y00382261D02*
X01376409D01*
Y00391431D01*
X01389689D01*
Y00382261D01*
D02*
G37*
D21*
X00441070Y00561340D02*
D03*
X00425070D02*
D03*
X00657860Y00590550D02*
D03*
X00673860D02*
D03*
X00466600Y00706120D02*
D03*
X00482600D02*
D03*
X00526160Y00477520D02*
D03*
X00510160D02*
D03*
D22*
X01271550Y00318614D02*
D03*
X01289050D02*
D03*
X01406030Y00665480D02*
D03*
X01423530D02*
D03*
X01406030Y00638810D02*
D03*
X01423530D02*
D03*
D51*
X01348740Y00428954D02*
D03*
Y00441954D02*
D03*
D52*
X01284120Y00386570D02*
D03*
X01271120D02*
D03*
X01328570Y00370684D02*
D03*
X01315570D02*
D03*
X01380640Y00328150D02*
D03*
X01367640D02*
D03*
D53*
X01269600Y00408784D02*
D03*
X01283100D02*
D03*
X01284370Y00362440D02*
D03*
X01270870D02*
D03*
X01328820Y00401164D02*
D03*
X01315320D02*
D03*
D54*
X01451610Y00473520D02*
D03*
Y00418020D02*
D03*
D55*
X01352520Y00295910D02*
D03*
X01380520D02*
D03*
D56*
X01375410Y00429974D02*
D03*
Y00443474D02*
D03*
X01419860Y00369100D02*
D03*
Y00355600D02*
D03*
X01517253Y00350520D02*
D03*
Y00364020D02*
D03*
D57*
X01484630Y00378460D02*
D03*
Y00350460D02*
D03*
D58*
X00554040Y00753110D02*
D03*
X00594040D02*
D03*
X00466730Y00754380D02*
D03*
X00506730D02*
D03*
X00674370Y00637540D02*
D03*
X00634370D02*
D03*
X00675320Y00494030D02*
D03*
X00635320D02*
D03*
X00674050Y00683260D02*
D03*
X00634050D02*
D03*
X00675320Y00539750D02*
D03*
X00635320D02*
D03*
D59*
X00558800Y00423860D02*
D03*
Y00383860D02*
D03*
X00509270Y00423860D02*
D03*
Y00383860D02*
D03*
D70*
X01353909Y00399930D02*
D03*
X01396909D02*
D03*
Y00384930D02*
D03*
X01353909D02*
D03*
D71*
X01357910Y00408931D02*
D03*
X01362910D02*
D03*
X01367910D02*
D03*
X01372910D02*
D03*
X01377910D02*
D03*
X01382910D02*
D03*
X01387910D02*
D03*
X01392910D02*
D03*
Y00375931D02*
D03*
X01387910D02*
D03*
X01382910D02*
D03*
X01377910D02*
D03*
X01372910D02*
D03*
X01367910D02*
D03*
X01362910D02*
D03*
X01357910D02*
D03*
D72*
X01375410Y00392430D02*
D03*
M02*
