G04*
G04 #@! TF.GenerationSoftware,Altium Limited,Altium Designer,20.2.5 (213)*
G04*
G04 Layer_Color=65535*
%FSAX44Y44*%
%MOMM*%
G71*
G04*
G04 #@! TF.SameCoordinates,DEE1CB44-B07E-4D6A-B40A-D2815B2109DB*
G04*
G04*
G04 #@! TF.FilePolarity,Positive*
G04*
G01*
G75*
%ADD10C,0.1524*%
%ADD11C,0.2000*%
%ADD12C,0.1500*%
%ADD13C,0.0762*%
%ADD14C,0.2540*%
G36*
X01159541Y00558605D02*
Y00562415D01*
X01157001D01*
Y00558605D01*
X01159541D01*
D02*
G37*
G36*
Y00608605D02*
Y00612415D01*
X01157001D01*
Y00608605D01*
X01159541D01*
D02*
G37*
G36*
X01219955Y00654019D02*
Y00656559D01*
X01216145D01*
Y00654019D01*
X01219955D01*
D02*
G37*
G36*
X01294099Y00603605D02*
X01291559D01*
Y00607415D01*
X01294099D01*
Y00603605D01*
D02*
G37*
G36*
Y00553605D02*
X01291559D01*
Y00557415D01*
X01294099D01*
Y00553605D01*
D02*
G37*
G36*
X01224955Y00519461D02*
X01221145D01*
Y00522001D01*
X01224955D01*
Y00519461D01*
D02*
G37*
G36*
X01499100Y00474710D02*
X01499600Y00474210D01*
X01487600D01*
Y00478210D01*
X01495100Y00485710D01*
X01499100D01*
Y00474710D01*
D02*
G37*
D10*
X01263812Y00656519D02*
G03*
X01263812Y00656519I-00000762J00000000D01*
G01*
X00562102Y00470535D02*
G03*
X00562102Y00470535I-00002032J00000000D01*
G01*
X00878484Y00659765D02*
Y00679831D01*
X00891361D02*
X00898119D01*
X00910996Y00659765D02*
Y00679831D01*
X01276858Y00630354D02*
Y00639318D01*
X01267894Y00536702D02*
X01276858D01*
X01174242D02*
Y00545666D01*
Y00639318D02*
X01183206D01*
X01267894D02*
X01276858D01*
Y00536702D02*
Y00545666D01*
X01174242Y00536702D02*
X01183206D01*
X01174242Y00630354D02*
Y00639318D01*
X00514678Y00677706D02*
Y00692785D01*
X00474800Y00489585D02*
Y00691515D01*
X00514678Y00488315D02*
Y00503395D01*
X00462100Y00692785D02*
X00514678D01*
X00462100Y00488315D02*
Y00692785D01*
Y00488315D02*
X00514678D01*
Y00525305D02*
Y00528795D01*
Y00550705D02*
Y00554194D01*
Y00576105D02*
Y00579594D01*
Y00601506D02*
Y00604995D01*
Y00626906D02*
Y00630395D01*
Y00652306D02*
Y00655795D01*
X01339936Y00348869D02*
Y00368935D01*
X01319920D02*
X01327186D01*
X01307170Y00348869D02*
Y00368935D01*
X00917956Y00439547D02*
Y00459613D01*
X00898321D02*
X00905079D01*
X00885444Y00439547D02*
Y00459613D01*
D11*
X01499100Y00485710D02*
G03*
X01487600Y00474210I00000000J-00011500D01*
G01*
X00838580Y00480200D02*
X00841580D01*
Y00434200D02*
Y00480200D01*
X00838580Y00434200D02*
X00841580D01*
X00819580D02*
X00822580D01*
X00819580D02*
Y00480200D01*
X00822580D01*
X00819580Y00457200D02*
X00841580D01*
X00805610Y00672960D02*
X00808610D01*
X00805610D02*
Y00718960D01*
X00808610D01*
X00824610D02*
X00827610D01*
Y00672960D02*
Y00718960D01*
X00824610Y00672960D02*
X00827610D01*
X00805610Y00695960D02*
X00827610D01*
X01132840Y00803910D02*
Y00859790D01*
X01005840D02*
X01132840D01*
X01005840Y00803910D02*
Y00859790D01*
X01016000Y00803910D02*
Y00808990D01*
X01122680D01*
Y00803910D02*
Y00808990D01*
X01005840Y00803910D02*
X01132840D01*
X00989330Y00802640D02*
Y00858520D01*
X00913130D02*
X00989330D01*
X00913130Y00802640D02*
Y00858520D01*
X00923290Y00802640D02*
Y00807720D01*
X00979170D01*
Y00802640D02*
Y00807720D01*
X00913130Y00802640D02*
X00989330D01*
X01477610Y00848120D02*
Y00857370D01*
Y00808870D02*
Y00818120D01*
X01362110Y00808870D02*
Y00818120D01*
Y00848120D02*
Y00857370D01*
Y00808870D02*
X01477610D01*
X01362110Y00857370D02*
X01477610D01*
X00411480Y00406400D02*
Y00419100D01*
X00408690Y00421640D02*
X00411480Y00419100D01*
X00408690Y00403860D02*
X00411480Y00406400D01*
X00408690Y00378460D02*
X00411480Y00381000D01*
X00408690Y00396240D02*
X00411480Y00393700D01*
Y00381000D02*
Y00393700D01*
X00472690Y00374050D02*
Y00427050D01*
X00408690D02*
X00472690D01*
X00408690Y00373050D02*
Y00427050D01*
Y00373050D02*
X00472690D01*
Y00374050D01*
X01497930Y00332890D02*
X01498930D01*
Y00268890D02*
Y00332890D01*
X01444930Y00268890D02*
X01498930D01*
X01444930D02*
Y00332890D01*
X01497930D01*
X01478280Y00271680D02*
X01490980D01*
X01475740Y00268890D02*
X01478280Y00271680D01*
X01490980D02*
X01493520Y00268890D01*
X01465580Y00271680D02*
X01468120Y00268890D01*
X01450340D02*
X01452880Y00271680D01*
X01465580D01*
X01499100Y00485710D02*
X01499600D01*
Y00570210D02*
Y00600210D01*
X01449600Y00570210D02*
Y00600210D01*
X01499600D01*
X01483600Y00526210D02*
Y00548210D01*
X01479600D02*
X01483600D01*
X01479600Y00526210D02*
Y00548210D01*
Y00526210D02*
X01483600D01*
Y00517210D02*
Y00526210D01*
Y00548210D02*
Y00557210D01*
X01449600Y00474210D02*
Y00504210D01*
Y00474210D02*
X01499600D01*
Y00504210D01*
X01497600Y00474210D02*
X01499600D01*
X00890270Y00803910D02*
Y00859790D01*
X00814070D02*
X00890270D01*
X00814070Y00803910D02*
Y00859790D01*
X00824230Y00803910D02*
Y00808990D01*
X00880110D01*
Y00803910D02*
Y00808990D01*
X00814070Y00803910D02*
X00890270D01*
X00454660Y00853440D02*
X00607060D01*
X00464820Y00848360D02*
Y00853440D01*
Y00848360D02*
X00596900D01*
Y00853440D01*
X00607060Y00797560D02*
Y00853440D01*
X00454660Y00797560D02*
X00607060D01*
X00454660D02*
Y00853440D01*
X00595630Y00276860D02*
Y00332740D01*
X00443230D02*
X00595630D01*
X00443230Y00276860D02*
Y00332740D01*
X00453390Y00276860D02*
Y00281940D01*
X00585470D01*
Y00276860D02*
Y00281940D01*
X00443230Y00276860D02*
X00595630D01*
D12*
X01103520Y00699280D02*
X01107520D01*
X01103520D02*
Y00733280D01*
X01107520D01*
X01117520D02*
X01121520D01*
Y00699280D02*
Y00733280D01*
X01117520Y00699280D02*
X01121520D01*
X01103520Y00716280D02*
X01121520D01*
X01153050Y00700550D02*
X01157050D01*
X01153050D02*
Y00734550D01*
X01157050D01*
X01167050D02*
X01171050D01*
Y00700550D02*
Y00734550D01*
X01167050Y00700550D02*
X01171050D01*
X01153050Y00717550D02*
X01171050D01*
X01363490Y00792400D02*
Y00796400D01*
X01397490D01*
Y00792400D02*
Y00796400D01*
Y00778400D02*
Y00782400D01*
X01363490Y00778400D02*
X01397490D01*
X01363490D02*
Y00782400D01*
X01380490Y00778400D02*
Y00796400D01*
X00824230Y00589170D02*
Y00607170D01*
X00807230Y00605170D02*
Y00607170D01*
X00841230D01*
Y00605170D02*
Y00607170D01*
X00807230Y00589170D02*
Y00591170D01*
Y00589170D02*
X00841230D01*
Y00591170D01*
X00946150Y00589170D02*
Y00607170D01*
X00929150Y00605170D02*
Y00607170D01*
X00963150D01*
Y00605170D02*
Y00607170D01*
X00929150Y00589170D02*
Y00591170D01*
Y00589170D02*
X00963150D01*
Y00591170D01*
X00946040Y00671830D02*
X00964040D01*
X00962040Y00688830D02*
X00964040D01*
Y00654830D02*
Y00688830D01*
X00962040Y00654830D02*
X00964040D01*
X00946040Y00688830D02*
X00948040D01*
X00946040Y00654830D02*
Y00688830D01*
Y00654830D02*
X00948040D01*
X00839470Y00374540D02*
Y00392540D01*
X00822470Y00390540D02*
Y00392540D01*
X00856470D01*
Y00390540D02*
Y00392540D01*
X00822470Y00374540D02*
Y00376540D01*
Y00374540D02*
X00856470D01*
Y00376540D01*
X00957470Y00446900D02*
X00975470D01*
X00973470Y00463900D02*
X00975470D01*
Y00429900D02*
Y00463900D01*
X00973470Y00429900D02*
X00975470D01*
X00957470Y00463900D02*
X00959470D01*
X00957470Y00429900D02*
Y00463900D01*
Y00429900D02*
X00959470D01*
X00883430Y00388540D02*
Y00392540D01*
X00917430D01*
Y00388540D02*
Y00392540D01*
Y00374540D02*
Y00378540D01*
X00883430Y00374540D02*
X00917430D01*
X00883430D02*
Y00378540D01*
X00900430Y00374540D02*
Y00392540D01*
X00957580Y00374540D02*
Y00392540D01*
X00940580Y00390540D02*
Y00392540D01*
X00974580D01*
Y00390540D02*
Y00392540D01*
X00940580Y00374540D02*
Y00376540D01*
Y00374540D02*
X00974580D01*
Y00376540D01*
X00910470Y00589678D02*
Y00593678D01*
X00876470Y00589678D02*
X00910470D01*
X00876470D02*
Y00593678D01*
Y00603678D02*
Y00607678D01*
X00910470D01*
Y00603678D02*
Y00607678D01*
X00893470Y00589678D02*
Y00607678D01*
X01324500Y00632460D02*
X01342500D01*
X01324500Y00649460D02*
X01328500D01*
X01324500Y00615460D02*
Y00649460D01*
Y00615460D02*
X01328500D01*
X01338500D02*
X01342500D01*
Y00649460D01*
X01338500D02*
X01342500D01*
X01424320Y00618980D02*
X01426320D01*
Y00584980D02*
Y00618980D01*
X01424320Y00584980D02*
X01426320D01*
X01408320Y00618980D02*
X01410320D01*
X01408320Y00584980D02*
Y00618980D01*
Y00584980D02*
X01410320D01*
X01408320Y00601980D02*
X01426320D01*
X01459230Y00778400D02*
Y00796400D01*
X01476230Y00792400D02*
Y00796400D01*
X01442230D02*
X01476230D01*
X01442230Y00792400D02*
Y00796400D01*
Y00778400D02*
Y00782400D01*
Y00778400D02*
X01476230D01*
Y00782400D01*
X01269890Y00685310D02*
X01273890D01*
X01269890D02*
Y00719310D01*
X01273890D01*
X01283890D02*
X01287890D01*
Y00685310D02*
Y00719310D01*
X01283890Y00685310D02*
X01287890D01*
X01269890Y00702310D02*
X01287890D01*
X01248410Y00393590D02*
Y00411590D01*
X01265410Y00407590D02*
Y00411590D01*
X01231410D02*
X01265410D01*
X01231410Y00407590D02*
Y00411590D01*
Y00393590D02*
Y00397590D01*
Y00393590D02*
X01265410D01*
Y00397590D01*
X01089550Y00490600D02*
X01107550D01*
X01089550Y00507600D02*
X01093550D01*
X01089550Y00473600D02*
Y00507600D01*
Y00473600D02*
X01093550D01*
X01103550D02*
X01107550D01*
Y00507600D01*
X01103550D02*
X01107550D01*
X01117490Y00491490D02*
X01135490D01*
X01117490Y00508490D02*
X01121490D01*
X01117490Y00474490D02*
Y00508490D01*
Y00474490D02*
X01121490D01*
X01131490D02*
X01135490D01*
Y00508490D01*
X01131490D02*
X01135490D01*
X01248410Y00372000D02*
Y00390000D01*
X01265410Y00386000D02*
Y00390000D01*
X01231410D02*
X01265410D01*
X01231410Y00386000D02*
Y00390000D01*
Y00372000D02*
Y00376000D01*
Y00372000D02*
X01265410D01*
Y00376000D01*
X01248410Y00347870D02*
Y00365870D01*
X01265410Y00361870D02*
Y00365870D01*
X01231410D02*
X01265410D01*
X01231410Y00361870D02*
Y00365870D01*
Y00347870D02*
Y00351870D01*
Y00347870D02*
X01265410D01*
Y00351870D01*
X01355090Y00559960D02*
Y00577960D01*
X01338090Y00575960D02*
Y00577960D01*
X01372090D01*
Y00575960D02*
Y00577960D01*
X01338090Y00559960D02*
Y00561960D01*
Y00559960D02*
X01372090D01*
Y00561960D01*
X01254650Y00476250D02*
X01272650D01*
X01254650Y00493250D02*
X01258650D01*
X01254650Y00459250D02*
Y00493250D01*
Y00459250D02*
X01258650D01*
X01268650D02*
X01272650D01*
Y00493250D01*
X01268650D02*
X01272650D01*
X01244520D02*
X01248520D01*
Y00459250D02*
Y00493250D01*
X01244520Y00459250D02*
X01248520D01*
X01230520D02*
X01234520D01*
X01230520D02*
Y00493250D01*
X01234520D01*
X01230520Y00476250D02*
X01248520D01*
D13*
X00874406Y00652145D02*
X00882870Y00660609D01*
Y00652145D02*
X00874406Y00660609D01*
X00878638Y00652145D02*
Y00660609D01*
X00882870Y00656377D02*
X00874406D01*
X01299663Y00337630D02*
X01308127Y00346093D01*
Y00337630D02*
X01299663Y00346093D01*
X01303895Y00337630D02*
Y00346093D01*
X01308127Y00341861D02*
X01299663D01*
X00881366Y00431927D02*
X00889830Y00440391D01*
Y00431927D02*
X00881366Y00440391D01*
X00885598Y00431927D02*
Y00440391D01*
X00889830Y00436159D02*
X00881366D01*
D14*
X01408433Y00623573D02*
Y00638807D01*
X01416051D01*
X01418590Y00636268D01*
Y00631190D01*
X01416051Y00628651D01*
X01408433D01*
X01413512D02*
X01418590Y00623573D01*
X01423668D02*
X01428747D01*
X01426208D01*
Y00638807D01*
X01423668Y00636268D01*
X01129033Y00654047D02*
Y00641352D01*
X01131572Y00638812D01*
X01136651D01*
X01139190Y00641352D01*
Y00654047D01*
X01144268Y00638812D02*
X01149347D01*
X01146808D01*
Y00654047D01*
X01144268Y00651508D01*
X01362708Y00654047D02*
X01365248Y00656586D01*
Y00661664D01*
X01362708Y00664203D01*
X01352552D01*
X01350013Y00661664D01*
Y00656586D01*
X01352552Y00654047D01*
X01350013Y00638812D02*
Y00648968D01*
X01360169Y00638812D01*
X01362708D01*
X01365248Y00641351D01*
Y00646429D01*
X01362708Y00648968D01*
X01365248Y00633733D02*
Y00623577D01*
X01362708D01*
X01352552Y00633733D01*
X01350013D01*
X01121412Y00437263D02*
X01118873Y00434724D01*
Y00429646D01*
X01121412Y00427107D01*
X01131568D01*
X01134108Y00429646D01*
Y00434724D01*
X01131568Y00437263D01*
X01134108Y00452498D02*
Y00442342D01*
X01123951Y00452498D01*
X01121412D01*
X01118873Y00449959D01*
Y00444881D01*
X01121412Y00442342D01*
X01118873Y00467733D02*
X01121412Y00462655D01*
X01126490Y00457577D01*
X01131568D01*
X01134108Y00460116D01*
Y00465194D01*
X01131568Y00467733D01*
X01129029D01*
X01126490Y00465194D01*
Y00457577D01*
X01191263Y00407668D02*
X01188724Y00410207D01*
X01183646D01*
X01181107Y00407668D01*
Y00397512D01*
X01183646Y00394972D01*
X01188724D01*
X01191263Y00397512D01*
X01206498Y00394972D02*
X01196342D01*
X01206498Y00405129D01*
Y00407668D01*
X01203959Y00410207D01*
X01198881D01*
X01196342Y00407668D01*
X01221733Y00410207D02*
X01211577D01*
Y00402590D01*
X01216655Y00405129D01*
X01219194D01*
X01221733Y00402590D01*
Y00397512D01*
X01219194Y00394972D01*
X01214116D01*
X01211577Y00397512D01*
X01201421Y00358138D02*
X01198882Y00360677D01*
X01193803D01*
X01191264Y00358138D01*
Y00347982D01*
X01193803Y00345443D01*
X01198882D01*
X01201421Y00347982D01*
X01216656Y00360677D02*
X01206499D01*
Y00353060D01*
X01211578Y00355599D01*
X01214117D01*
X01216656Y00353060D01*
Y00347982D01*
X01214117Y00345443D01*
X01209038D01*
X01206499Y00347982D01*
X01508763Y00843278D02*
Y00840738D01*
X01513842Y00835660D01*
X01518920Y00840738D01*
Y00843278D01*
X01513842Y00835660D02*
Y00828043D01*
X01523998D02*
X01529077D01*
X01526538D01*
Y00843278D01*
X01523998Y00840738D01*
X01321017Y00405890D02*
Y00393194D01*
X01323556Y00390654D01*
X01328635D01*
X01331174Y00393194D01*
Y00405890D01*
X01346409Y00390654D02*
X01336252D01*
X01346409Y00400811D01*
Y00403350D01*
X01343870Y00405890D01*
X01338791D01*
X01336252Y00403350D01*
X00939806Y00353063D02*
Y00368298D01*
X00947424D01*
X00949963Y00365758D01*
Y00360680D01*
X00947424Y00358141D01*
X00939806D01*
X00944884D02*
X00949963Y00353063D01*
X00955041D02*
X00960120D01*
X00957580D01*
Y00368298D01*
X00955041Y00365758D01*
X00967737Y00368298D02*
X00977894D01*
Y00365758D01*
X00967737Y00355602D01*
Y00353063D01*
X00929646Y00566423D02*
Y00581657D01*
X00937264D01*
X00939803Y00579118D01*
Y00574040D01*
X00937264Y00571501D01*
X00929646D01*
X00934725D02*
X00939803Y00566423D01*
X00944881D02*
X00949960D01*
X00947420D01*
Y00581657D01*
X00944881Y00579118D01*
X00967734Y00581657D02*
X00962655Y00579118D01*
X00957577Y00574040D01*
Y00568962D01*
X00960116Y00566423D01*
X00965195D01*
X00967734Y00568962D01*
Y00571501D01*
X00965195Y00574040D01*
X00957577D01*
X00949958Y00425456D02*
X00934722D01*
Y00433074D01*
X00937262Y00435613D01*
X00942340D01*
X00944879Y00433074D01*
Y00425456D01*
Y00430535D02*
X00949958Y00435613D01*
Y00440691D02*
Y00445770D01*
Y00443230D01*
X00934722D01*
X00937262Y00440691D01*
X00934722Y00463544D02*
Y00453387D01*
X00942340D01*
X00939801Y00458465D01*
Y00461005D01*
X00942340Y00463544D01*
X00947418D01*
X00949958Y00461005D01*
Y00455926D01*
X00947418Y00453387D01*
X00938528Y00650246D02*
X00923292D01*
Y00657864D01*
X00925832Y00660403D01*
X00930910D01*
X00933449Y00657864D01*
Y00650246D01*
Y00655324D02*
X00938528Y00660403D01*
Y00665481D02*
Y00670560D01*
Y00668020D01*
X00923292D01*
X00925832Y00665481D01*
X00938528Y00685795D02*
X00923292D01*
X00930910Y00678177D01*
Y00688334D01*
X00819156Y00353063D02*
Y00368298D01*
X00826774D01*
X00829313Y00365758D01*
Y00360680D01*
X00826774Y00358141D01*
X00819156D01*
X00824234D02*
X00829313Y00353063D01*
X00834391D02*
X00839470D01*
X00836930D01*
Y00368298D01*
X00834391Y00365758D01*
X00847087D02*
X00849626Y00368298D01*
X00854705D01*
X00857244Y00365758D01*
Y00363219D01*
X00854705Y00360680D01*
X00852166D01*
X00854705D01*
X00857244Y00358141D01*
Y00355602D01*
X00854705Y00353063D01*
X00849626D01*
X00847087Y00355602D01*
X00806456Y00566423D02*
Y00581657D01*
X00814074D01*
X00816613Y00579118D01*
Y00574040D01*
X00814074Y00571501D01*
X00806456D01*
X00811535D02*
X00816613Y00566423D01*
X00821691D02*
X00826770D01*
X00824230D01*
Y00581657D01*
X00821691Y00579118D01*
X00844544Y00566423D02*
X00834387D01*
X00844544Y00576579D01*
Y00579118D01*
X00842005Y00581657D01*
X00836926D01*
X00834387Y00579118D01*
X00811527Y00438155D02*
X00796292D01*
Y00445773D01*
X00798832Y00448312D01*
X00803910D01*
X00806449Y00445773D01*
Y00438155D01*
Y00443234D02*
X00811527Y00448312D01*
Y00453390D02*
Y00458469D01*
Y00455930D01*
X00796292D01*
X00798832Y00453390D01*
X00811527Y00466086D02*
Y00471165D01*
Y00468625D01*
X00796292D01*
X00798832Y00466086D01*
X00835663Y00716274D02*
X00850898D01*
Y00708656D01*
X00848358Y00706117D01*
X00843280D01*
X00840741Y00708656D01*
Y00716274D01*
Y00711196D02*
X00835663Y00706117D01*
Y00701039D02*
Y00695960D01*
Y00698500D01*
X00850898D01*
X00848358Y00701039D01*
Y00688343D02*
X00850898Y00685804D01*
Y00680725D01*
X00848358Y00678186D01*
X00838202D01*
X00835663Y00680725D01*
Y00685804D01*
X00838202Y00688343D01*
X00848358D01*
X01343664Y00537212D02*
Y00552448D01*
X01351282D01*
X01353821Y00549908D01*
Y00544830D01*
X01351282Y00542291D01*
X01343664D01*
X01348743D02*
X01353821Y00537212D01*
X01369056D02*
X01358899D01*
X01369056Y00547369D01*
Y00549908D01*
X01366517Y00552448D01*
X01361438D01*
X01358899Y00549908D01*
X00433071Y00849628D02*
X00427993D01*
X00430532D01*
Y00836932D01*
X00427993Y00834392D01*
X00425453D01*
X00422914Y00836932D01*
X00438149Y00847088D02*
X00440688Y00849628D01*
X00445767D01*
X00448306Y00847088D01*
Y00844549D01*
X00445767Y00842010D01*
X00448306Y00839471D01*
Y00836932D01*
X00445767Y00834392D01*
X00440688D01*
X00438149Y00836932D01*
Y00839471D01*
X00440688Y00842010D01*
X00438149Y00844549D01*
Y00847088D01*
X00440688Y00842010D02*
X00445767D01*
X00615951Y00309877D02*
X00610872D01*
X00613412D01*
Y00297182D01*
X00610872Y00294643D01*
X00608333D01*
X00605794Y00297182D01*
X00621029Y00309877D02*
X00631186D01*
Y00307338D01*
X00621029Y00297182D01*
Y00294643D01*
X00948691Y00792477D02*
X00943613D01*
X00946152D01*
Y00779782D01*
X00943613Y00777243D01*
X00941073D01*
X00938534Y00779782D01*
X00963926Y00792477D02*
X00958848Y00789938D01*
X00953769Y00784860D01*
Y00779782D01*
X00956308Y00777243D01*
X00961387D01*
X00963926Y00779782D01*
Y00782321D01*
X00961387Y00784860D01*
X00953769D01*
X01150621Y00839467D02*
X01145543D01*
X01148082D01*
Y00826772D01*
X01145543Y00824232D01*
X01143003D01*
X01140464Y00826772D01*
X01165856Y00839467D02*
X01155699D01*
Y00831850D01*
X01160778Y00834389D01*
X01163317D01*
X01165856Y00831850D01*
Y00826772D01*
X01163317Y00824232D01*
X01158238D01*
X01155699Y00826772D01*
X00786131Y00836927D02*
X00781052D01*
X00783592D01*
Y00824232D01*
X00781052Y00821693D01*
X00778513D01*
X00775974Y00824232D01*
X00798827Y00821693D02*
Y00836927D01*
X00791209Y00829310D01*
X00801366D01*
X00419101Y00449577D02*
X00414022D01*
X00416562D01*
Y00436882D01*
X00414022Y00434342D01*
X00411483D01*
X00408944Y00436882D01*
X00424179Y00447038D02*
X00426718Y00449577D01*
X00431797D01*
X00434336Y00447038D01*
Y00444499D01*
X00431797Y00441960D01*
X00429258D01*
X00431797D01*
X00434336Y00439421D01*
Y00436882D01*
X00431797Y00434342D01*
X00426718D01*
X00424179Y00436882D01*
X01520191Y00292097D02*
X01515112D01*
X01517652D01*
Y00279402D01*
X01515112Y00276863D01*
X01512573D01*
X01510034Y00279402D01*
X01535426Y00276863D02*
X01525269D01*
X01535426Y00287019D01*
Y00289558D01*
X01532887Y00292097D01*
X01527808D01*
X01525269Y00289558D01*
X01521590Y00584198D02*
X01516512D01*
X01519051D01*
Y00571502D01*
X01516512Y00568963D01*
X01513972D01*
X01511433Y00571502D01*
X01526668Y00568963D02*
X01531747D01*
X01529208D01*
Y00584198D01*
X01526668Y00581658D01*
X00619763Y00693418D02*
X00617224Y00695957D01*
X00612146D01*
X00609607Y00693418D01*
Y00683262D01*
X00612146Y00680723D01*
X00617224D01*
X00619763Y00683262D01*
X00624842Y00680723D02*
Y00695957D01*
X00632459D01*
X00634998Y00693418D01*
Y00688340D01*
X00632459Y00685801D01*
X00624842D01*
X00629920D02*
X00634998Y00680723D01*
X00640077Y00693418D02*
X00642616Y00695957D01*
X00647694D01*
X00650233Y00693418D01*
Y00690879D01*
X00647694Y00688340D01*
X00645155D01*
X00647694D01*
X00650233Y00685801D01*
Y00683262D01*
X00647694Y00680723D01*
X00642616D01*
X00640077Y00683262D01*
X00861062Y00440693D02*
X00858522Y00438154D01*
Y00433076D01*
X00861062Y00430537D01*
X00871218D01*
X00873757Y00433076D01*
Y00438154D01*
X00871218Y00440693D01*
X00873757Y00445772D02*
X00858522D01*
Y00453389D01*
X00861062Y00455928D01*
X00866140D01*
X00868679Y00453389D01*
Y00445772D01*
Y00450850D02*
X00873757Y00455928D01*
Y00471163D02*
Y00461007D01*
X00863601Y00471163D01*
X00861062D01*
X00858522Y00468624D01*
Y00463546D01*
X00861062Y00461007D01*
X00853442Y00633732D02*
X00850902Y00631193D01*
Y00626115D01*
X00853442Y00623576D01*
X00863598D01*
X00866137Y00626115D01*
Y00631193D01*
X00863598Y00633732D01*
X00866137Y00638811D02*
X00850902D01*
Y00646428D01*
X00853442Y00648968D01*
X00858520D01*
X00861059Y00646428D01*
Y00638811D01*
Y00643889D02*
X00866137Y00648968D01*
Y00654046D02*
Y00659124D01*
Y00656585D01*
X00850902D01*
X00853442Y00654046D01*
X01250952Y00693423D02*
X01248412Y00690884D01*
Y00685806D01*
X01250952Y00683267D01*
X01261108D01*
X01263648Y00685806D01*
Y00690884D01*
X01261108Y00693423D01*
X01263648Y00708658D02*
Y00698502D01*
X01253491Y00708658D01*
X01250952D01*
X01248412Y00706119D01*
Y00701041D01*
X01250952Y00698502D01*
X01263648Y00721354D02*
X01248412D01*
X01256030Y00713737D01*
Y00723893D01*
X01144268Y00722627D02*
X01146807Y00725166D01*
Y00730244D01*
X01144268Y00732783D01*
X01134112D01*
X01131572Y00730244D01*
Y00725166D01*
X01134112Y00722627D01*
X01131572Y00707392D02*
Y00717548D01*
X01141729Y00707392D01*
X01144268D01*
X01146807Y00709931D01*
Y00715009D01*
X01144268Y00717548D01*
Y00702313D02*
X01146807Y00699774D01*
Y00694696D01*
X01144268Y00692157D01*
X01141729D01*
X01139190Y00694696D01*
Y00697235D01*
Y00694696D01*
X01136651Y00692157D01*
X01134112D01*
X01131572Y00694696D01*
Y00699774D01*
X01134112Y00702313D01*
X01092198Y00725167D02*
X01094738Y00727706D01*
Y00732784D01*
X01092198Y00735323D01*
X01082042D01*
X01079502Y00732784D01*
Y00727706D01*
X01082042Y00725167D01*
X01079502Y00709932D02*
Y00720088D01*
X01089659Y00709932D01*
X01092198D01*
X01094738Y00712471D01*
Y00717549D01*
X01092198Y00720088D01*
X01079502Y00694697D02*
Y00704853D01*
X01089659Y00694697D01*
X01092198D01*
X01094738Y00697236D01*
Y00702314D01*
X01092198Y00704853D01*
X01292858Y00482598D02*
X01295397Y00485137D01*
Y00490215D01*
X01292858Y00492754D01*
X01282702D01*
X01280163Y00490215D01*
Y00485137D01*
X01282702Y00482598D01*
X01280163Y00467362D02*
Y00477519D01*
X01290319Y00467362D01*
X01292858D01*
X01295397Y00469902D01*
Y00474980D01*
X01292858Y00477519D01*
X01280163Y00462284D02*
Y00457206D01*
Y00459745D01*
X01295397D01*
X01292858Y00462284D01*
X00891543Y00367028D02*
X00889004Y00369567D01*
X00883925D01*
X00881386Y00367028D01*
Y00356872D01*
X00883925Y00354333D01*
X00889004D01*
X00891543Y00356872D01*
X00896621Y00354333D02*
X00901700D01*
X00899160D01*
Y00369567D01*
X00896621Y00367028D01*
X00919474Y00369567D02*
X00914396Y00367028D01*
X00909317Y00361950D01*
Y00356872D01*
X00911856Y00354333D01*
X00916935D01*
X00919474Y00356872D01*
Y00359411D01*
X00916935Y00361950D01*
X00909317D01*
X00885193Y00580388D02*
X00882654Y00582928D01*
X00877575D01*
X00875036Y00580388D01*
Y00570232D01*
X00877575Y00567692D01*
X00882654D01*
X00885193Y00570232D01*
X00890271Y00567692D02*
X00895350D01*
X00892810D01*
Y00582928D01*
X00890271Y00580388D01*
X00913124Y00582928D02*
X00902967D01*
Y00575310D01*
X00908046Y00577849D01*
X00910585D01*
X00913124Y00575310D01*
Y00570232D01*
X00910585Y00567692D01*
X00905506D01*
X00902967Y00570232D01*
X01210312Y00467363D02*
X01207772Y00464824D01*
Y00459745D01*
X01210312Y00457206D01*
X01220468D01*
X01223008Y00459745D01*
Y00464824D01*
X01220468Y00467363D01*
X01223008Y00472441D02*
Y00477520D01*
Y00474980D01*
X01207772D01*
X01210312Y00472441D01*
X01223008Y00492755D02*
X01207772D01*
X01215390Y00485137D01*
Y00495294D01*
X01090932Y00438533D02*
X01088392Y00435994D01*
Y00430915D01*
X01090932Y00428376D01*
X01101088D01*
X01103627Y00430915D01*
Y00435994D01*
X01101088Y00438533D01*
X01103627Y00443611D02*
Y00448690D01*
Y00446150D01*
X01088392D01*
X01090932Y00443611D01*
Y00456307D02*
X01088392Y00458846D01*
Y00463925D01*
X01090932Y00466464D01*
X01093471D01*
X01096010Y00463925D01*
Y00461385D01*
Y00463925D01*
X01098549Y00466464D01*
X01101088D01*
X01103627Y00463925D01*
Y00458846D01*
X01101088Y00456307D01*
X01201421Y00382268D02*
X01198882Y00384808D01*
X01193803D01*
X01191264Y00382268D01*
Y00372112D01*
X01193803Y00369572D01*
X01198882D01*
X01201421Y00372112D01*
X01216656Y00384808D02*
X01211578Y00382268D01*
X01206499Y00377190D01*
Y00372112D01*
X01209038Y00369572D01*
X01214117D01*
X01216656Y00372112D01*
Y00374651D01*
X01214117Y00377190D01*
X01206499D01*
X01456691Y00769618D02*
X01454152Y00772158D01*
X01449073D01*
X01446534Y00769618D01*
Y00759462D01*
X01449073Y00756923D01*
X01454152D01*
X01456691Y00759462D01*
X01471926Y00756923D02*
X01461769D01*
X01471926Y00767079D01*
Y00769618D01*
X01469387Y00772158D01*
X01464308D01*
X01461769Y00769618D01*
X01379220D02*
X01376681Y00772158D01*
X01371602D01*
X01369063Y00769618D01*
Y00759462D01*
X01371602Y00756923D01*
X01376681D01*
X01379220Y00759462D01*
X01384298Y00756923D02*
X01389377D01*
X01386838D01*
Y00772158D01*
X01384298Y00769618D01*
M02*
